<?xml version="1.0" standalone="no"?>
 <!DOCTYPE svg PUBLIC "-//W3C//DTD SVG 1.1//EN" 
 "http://www.w3.org/Graphics/SVG/1.1/DTD/svg11.dtd"> 
<svg
  xmlns:svg="http://www.w3.org/2000/svg"
  xmlns="http://www.w3.org/2000/svg"
  xmlns:xlink="http://www.w3.org/1999/xlink"
  xmlns:inkscape="http://www.inkscape.org/namespaces/inkscape"
  version="1.1"
  width="297.0022mm" height="210.0072mm" viewBox="0.0000 0.0000 297.0022 210.0072">
<title>SVG Image created as Kicad_T-C5-CAN-Shield-F_Silkscreen.svg date 2026-08-19T16:21:21 </title>
  <desc>Image generated by PCBNEW </desc>
<g style="fill:#000000; fill-opacity:1.0000;stroke:#000000; stroke-opacity:1.0000;
stroke-linecap:round; stroke-linejoin:round;"
 transform="translate(0 0) scale(1 1)">
</g>
<g style="fill:none; 
stroke:#000000; stroke-width:0.1500; stroke-opacity:1; 
stroke-linecap:round; stroke-linejoin:round;">
<text x="126.9498" y="143.5513"
textLength="10.6786" font-size="1.3333" lengthAdjust="spacingAndGlyphs"
text-anchor="middle" opacity="0" stroke-opacity="0">R 1.3900 mm</text>
<g class="stroked-text"><desc>R 1.3900 mm</desc>
<path d="M122.5451 143.5061
L122.2117 143.0299
" />
<path d="M121.9736 143.5061
L121.9736 142.5061
" />
<path d="M121.9736 142.5061
L122.3546 142.5061
" />
<path d="M122.3546 142.5061
L122.4498 142.5538
" />
<path d="M122.4498 142.5538
L122.4974 142.6014
" />
<path d="M122.4974 142.6014
L122.5451 142.6966
" />
<path d="M122.5451 142.6966
L122.5451 142.8395
" />
<path d="M122.5451 142.8395
L122.4974 142.9347
" />
<path d="M122.4974 142.9347
L122.4498 142.9823
" />
<path d="M122.4498 142.9823
L122.3546 143.0299
" />
<path d="M122.3546 143.0299
L121.9736 143.0299
" />
<path d="M124.2593 143.5061
L123.6879 143.5061
" />
<path d="M123.9736 143.5061
L123.9736 142.5061
" />
<path d="M123.9736 142.5061
L123.8784 142.6490
" />
<path d="M123.8784 142.6490
L123.7832 142.7442
" />
<path d="M123.7832 142.7442
L123.6879 142.7918
" />
<path d="M124.6879 143.4109
L124.7355 143.4585
" />
<path d="M124.7355 143.4585
L124.6879 143.5061
" />
<path d="M124.6879 143.5061
L124.6403 143.4585
" />
<path d="M124.6403 143.4585
L124.6879 143.4109
" />
<path d="M124.6879 143.4109
L124.6879 143.5061
" />
<path d="M125.0689 142.5061
L125.6879 142.5061
" />
<path d="M125.6879 142.5061
L125.3546 142.8871
" />
<path d="M125.3546 142.8871
L125.4974 142.8871
" />
<path d="M125.4974 142.8871
L125.5927 142.9347
" />
<path d="M125.5927 142.9347
L125.6403 142.9823
" />
<path d="M125.6403 142.9823
L125.6879 143.0776
" />
<path d="M125.6879 143.0776
L125.6879 143.3157
" />
<path d="M125.6879 143.3157
L125.6403 143.4109
" />
<path d="M125.6403 143.4109
L125.5927 143.4585
" />
<path d="M125.5927 143.4585
L125.4974 143.5061
" />
<path d="M125.4974 143.5061
L125.2117 143.5061
" />
<path d="M125.2117 143.5061
L125.1165 143.4585
" />
<path d="M125.1165 143.4585
L125.0689 143.4109
" />
<path d="M126.1641 143.5061
L126.3546 143.5061
" />
<path d="M126.3546 143.5061
L126.4498 143.4585
" />
<path d="M126.4498 143.4585
L126.4974 143.4109
" />
<path d="M126.4974 143.4109
L126.5927 143.2680
" />
<path d="M126.5927 143.2680
L126.6403 143.0776
" />
<path d="M126.6403 143.0776
L126.6403 142.6966
" />
<path d="M126.6403 142.6966
L126.5927 142.6014
" />
<path d="M126.5927 142.6014
L126.5451 142.5538
" />
<path d="M126.5451 142.5538
L126.4498 142.5061
" />
<path d="M126.4498 142.5061
L126.2593 142.5061
" />
<path d="M126.2593 142.5061
L126.1641 142.5538
" />
<path d="M126.1641 142.5538
L126.1165 142.6014
" />
<path d="M126.1165 142.6014
L126.0689 142.6966
" />
<path d="M126.0689 142.6966
L126.0689 142.9347
" />
<path d="M126.0689 142.9347
L126.1165 143.0299
" />
<path d="M126.1165 143.0299
L126.1641 143.0776
" />
<path d="M126.1641 143.0776
L126.2593 143.1252
" />
<path d="M126.2593 143.1252
L126.4498 143.1252
" />
<path d="M126.4498 143.1252
L126.5451 143.0776
" />
<path d="M126.5451 143.0776
L126.5927 143.0299
" />
<path d="M126.5927 143.0299
L126.6403 142.9347
" />
<path d="M127.2593 142.5061
L127.3546 142.5061
" />
<path d="M127.3546 142.5061
L127.4498 142.5538
" />
<path d="M127.4498 142.5538
L127.4974 142.6014
" />
<path d="M127.4974 142.6014
L127.5451 142.6966
" />
<path d="M127.5451 142.6966
L127.5927 142.8871
" />
<path d="M127.5927 142.8871
L127.5927 143.1252
" />
<path d="M127.5927 143.1252
L127.5451 143.3157
" />
<path d="M127.5451 143.3157
L127.4974 143.4109
" />
<path d="M127.4974 143.4109
L127.4498 143.4585
" />
<path d="M127.4498 143.4585
L127.3546 143.5061
" />
<path d="M127.3546 143.5061
L127.2593 143.5061
" />
<path d="M127.2593 143.5061
L127.1641 143.4585
" />
<path d="M127.1641 143.4585
L127.1165 143.4109
" />
<path d="M127.1165 143.4109
L127.0689 143.3157
" />
<path d="M127.0689 143.3157
L127.0213 143.1252
" />
<path d="M127.0213 143.1252
L127.0213 142.8871
" />
<path d="M127.0213 142.8871
L127.0689 142.6966
" />
<path d="M127.0689 142.6966
L127.1165 142.6014
" />
<path d="M127.1165 142.6014
L127.1641 142.5538
" />
<path d="M127.1641 142.5538
L127.2593 142.5061
" />
<path d="M128.2117 142.5061
L128.3070 142.5061
" />
<path d="M128.3070 142.5061
L128.4022 142.5538
" />
<path d="M128.4022 142.5538
L128.4498 142.6014
" />
<path d="M128.4498 142.6014
L128.4974 142.6966
" />
<path d="M128.4974 142.6966
L128.5451 142.8871
" />
<path d="M128.5451 142.8871
L128.5451 143.1252
" />
<path d="M128.5451 143.1252
L128.4974 143.3157
" />
<path d="M128.4974 143.3157
L128.4498 143.4109
" />
<path d="M128.4498 143.4109
L128.4022 143.4585
" />
<path d="M128.4022 143.4585
L128.3070 143.5061
" />
<path d="M128.3070 143.5061
L128.2117 143.5061
" />
<path d="M128.2117 143.5061
L128.1165 143.4585
" />
<path d="M128.1165 143.4585
L128.0689 143.4109
" />
<path d="M128.0689 143.4109
L128.0213 143.3157
" />
<path d="M128.0213 143.3157
L127.9736 143.1252
" />
<path d="M127.9736 143.1252
L127.9736 142.8871
" />
<path d="M127.9736 142.8871
L128.0213 142.6966
" />
<path d="M128.0213 142.6966
L128.0689 142.6014
" />
<path d="M128.0689 142.6014
L128.1165 142.5538
" />
<path d="M128.1165 142.5538
L128.2117 142.5061
" />
<path d="M129.7355 143.5061
L129.7355 142.8395
" />
<path d="M129.7355 142.9347
L129.7832 142.8871
" />
<path d="M129.7832 142.8871
L129.8784 142.8395
" />
<path d="M129.8784 142.8395
L130.0213 142.8395
" />
<path d="M130.0213 142.8395
L130.1165 142.8871
" />
<path d="M130.1165 142.8871
L130.1641 142.9823
" />
<path d="M130.1641 142.9823
L130.1641 143.5061
" />
<path d="M130.1641 142.9823
L130.2117 142.8871
" />
<path d="M130.2117 142.8871
L130.3070 142.8395
" />
<path d="M130.3070 142.8395
L130.4498 142.8395
" />
<path d="M130.4498 142.8395
L130.5451 142.8871
" />
<path d="M130.5451 142.8871
L130.5927 142.9823
" />
<path d="M130.5927 142.9823
L130.5927 143.5061
" />
<path d="M131.0689 143.5061
L131.0689 142.8395
" />
<path d="M131.0689 142.9347
L131.1165 142.8871
" />
<path d="M131.1165 142.8871
L131.2117 142.8395
" />
<path d="M131.2117 142.8395
L131.3546 142.8395
" />
<path d="M131.3546 142.8395
L131.4498 142.8871
" />
<path d="M131.4498 142.8871
L131.4974 142.9823
" />
<path d="M131.4974 142.9823
L131.4974 143.5061
" />
<path d="M131.4974 142.9823
L131.5451 142.8871
" />
<path d="M131.5451 142.8871
L131.6403 142.8395
" />
<path d="M131.6403 142.8395
L131.7832 142.8395
" />
<path d="M131.7832 142.8395
L131.8784 142.8871
" />
<path d="M131.8784 142.8871
L131.9260 142.9823
" />
<path d="M131.9260 142.9823
L131.9260 143.5061
" />
</g><path d="M139.6872 136.5814
L139.6872 139.1214
" />
<path d="M140.9572 137.8514
L138.4172 137.8514
" />
<path d="M139.6772 139.2414
L139.6498 143.0513
" />
<path d="M139.6498 143.0513
L132.7891 143.0513
" />
<path d="M139.6772 139.2414
L140.2555 140.3721
" />
<path d="M139.6772 139.2414
L139.0827 140.3637
" />
<g transform="rotate(-90.000000 130.6772 120.1564)">
<text x="130.6772" y="120.6564"
textLength="9.8690" font-size="1.3333" lengthAdjust="spacingAndGlyphs"
text-anchor="middle" opacity="0" stroke-opacity="0">40.5300 mm</text>
</g>
<g class="stroked-text"><desc>40.5300 mm</desc>
<path d="M130.4654 124.2993
L131.1321 124.2993
" />
<path d="M130.0844 124.5374
L130.7987 124.7755
" />
<path d="M130.7987 124.7755
L130.7987 124.1564
" />
<path d="M130.1321 123.5850
L130.1321 123.4897
" />
<path d="M130.1321 123.4897
L130.1797 123.3945
" />
<path d="M130.1797 123.3945
L130.2273 123.3469
" />
<path d="M130.2273 123.3469
L130.3225 123.2993
" />
<path d="M130.3225 123.2993
L130.5130 123.2516
" />
<path d="M130.5130 123.2516
L130.7511 123.2516
" />
<path d="M130.7511 123.2516
L130.9416 123.2993
" />
<path d="M130.9416 123.2993
L131.0368 123.3469
" />
<path d="M131.0368 123.3469
L131.0844 123.3945
" />
<path d="M131.0844 123.3945
L131.1321 123.4897
" />
<path d="M131.1321 123.4897
L131.1321 123.5850
" />
<path d="M131.1321 123.5850
L131.0844 123.6802
" />
<path d="M131.0844 123.6802
L131.0368 123.7278
" />
<path d="M131.0368 123.7278
L130.9416 123.7755
" />
<path d="M130.9416 123.7755
L130.7511 123.8231
" />
<path d="M130.7511 123.8231
L130.5130 123.8231
" />
<path d="M130.5130 123.8231
L130.3225 123.7755
" />
<path d="M130.3225 123.7755
L130.2273 123.7278
" />
<path d="M130.2273 123.7278
L130.1797 123.6802
" />
<path d="M130.1797 123.6802
L130.1321 123.5850
" />
<path d="M131.0368 122.8231
L131.0844 122.7755
" />
<path d="M131.0844 122.7755
L131.1321 122.8231
" />
<path d="M131.1321 122.8231
L131.0844 122.8707
" />
<path d="M131.0844 122.8707
L131.0368 122.8231
" />
<path d="M131.0368 122.8231
L131.1321 122.8231
" />
<path d="M130.1321 121.8707
L130.1321 122.3469
" />
<path d="M130.1321 122.3469
L130.6082 122.3945
" />
<path d="M130.6082 122.3945
L130.5606 122.3469
" />
<path d="M130.5606 122.3469
L130.5130 122.2516
" />
<path d="M130.5130 122.2516
L130.5130 122.0136
" />
<path d="M130.5130 122.0136
L130.5606 121.9183
" />
<path d="M130.5606 121.9183
L130.6082 121.8707
" />
<path d="M130.6082 121.8707
L130.7035 121.8231
" />
<path d="M130.7035 121.8231
L130.9416 121.8231
" />
<path d="M130.9416 121.8231
L131.0368 121.8707
" />
<path d="M131.0368 121.8707
L131.0844 121.9183
" />
<path d="M131.0844 121.9183
L131.1321 122.0136
" />
<path d="M131.1321 122.0136
L131.1321 122.2516
" />
<path d="M131.1321 122.2516
L131.0844 122.3469
" />
<path d="M131.0844 122.3469
L131.0368 122.3945
" />
<path d="M130.1321 121.4897
L130.1321 120.8707
" />
<path d="M130.1321 120.8707
L130.5130 121.2040
" />
<path d="M130.5130 121.2040
L130.5130 121.0612
" />
<path d="M130.5130 121.0612
L130.5606 120.9659
" />
<path d="M130.5606 120.9659
L130.6082 120.9183
" />
<path d="M130.6082 120.9183
L130.7035 120.8707
" />
<path d="M130.7035 120.8707
L130.9416 120.8707
" />
<path d="M130.9416 120.8707
L131.0368 120.9183
" />
<path d="M131.0368 120.9183
L131.0844 120.9659
" />
<path d="M131.0844 120.9659
L131.1321 121.0612
" />
<path d="M131.1321 121.0612
L131.1321 121.3469
" />
<path d="M131.1321 121.3469
L131.0844 121.4421
" />
<path d="M131.0844 121.4421
L131.0368 121.4897
" />
<path d="M130.1321 120.2516
L130.1321 120.1564
" />
<path d="M130.1321 120.1564
L130.1797 120.0612
" />
<path d="M130.1797 120.0612
L130.2273 120.0136
" />
<path d="M130.2273 120.0136
L130.3225 119.9659
" />
<path d="M130.3225 119.9659
L130.5130 119.9183
" />
<path d="M130.5130 119.9183
L130.7511 119.9183
" />
<path d="M130.7511 119.9183
L130.9416 119.9659
" />
<path d="M130.9416 119.9659
L131.0368 120.0136
" />
<path d="M131.0368 120.0136
L131.0844 120.0612
" />
<path d="M131.0844 120.0612
L131.1321 120.1564
" />
<path d="M131.1321 120.1564
L131.1321 120.2516
" />
<path d="M131.1321 120.2516
L131.0844 120.3469
" />
<path d="M131.0844 120.3469
L131.0368 120.3945
" />
<path d="M131.0368 120.3945
L130.9416 120.4421
" />
<path d="M130.9416 120.4421
L130.7511 120.4897
" />
<path d="M130.7511 120.4897
L130.5130 120.4897
" />
<path d="M130.5130 120.4897
L130.3225 120.4421
" />
<path d="M130.3225 120.4421
L130.2273 120.3945
" />
<path d="M130.2273 120.3945
L130.1797 120.3469
" />
<path d="M130.1797 120.3469
L130.1321 120.2516
" />
<path d="M130.1321 119.2993
L130.1321 119.2040
" />
<path d="M130.1321 119.2040
L130.1797 119.1088
" />
<path d="M130.1797 119.1088
L130.2273 119.0612
" />
<path d="M130.2273 119.0612
L130.3225 119.0136
" />
<path d="M130.3225 119.0136
L130.5130 118.9659
" />
<path d="M130.5130 118.9659
L130.7511 118.9659
" />
<path d="M130.7511 118.9659
L130.9416 119.0136
" />
<path d="M130.9416 119.0136
L131.0368 119.0612
" />
<path d="M131.0368 119.0612
L131.0844 119.1088
" />
<path d="M131.0844 119.1088
L131.1321 119.2040
" />
<path d="M131.1321 119.2040
L131.1321 119.2993
" />
<path d="M131.1321 119.2993
L131.0844 119.3945
" />
<path d="M131.0844 119.3945
L131.0368 119.4421
" />
<path d="M131.0368 119.4421
L130.9416 119.4897
" />
<path d="M130.9416 119.4897
L130.7511 119.5374
" />
<path d="M130.7511 119.5374
L130.5130 119.5374
" />
<path d="M130.5130 119.5374
L130.3225 119.4897
" />
<path d="M130.3225 119.4897
L130.2273 119.4421
" />
<path d="M130.2273 119.4421
L130.1797 119.3945
" />
<path d="M130.1797 119.3945
L130.1321 119.2993
" />
<path d="M131.1321 117.7755
L130.4654 117.7755
" />
<path d="M130.5606 117.7755
L130.5130 117.7278
" />
<path d="M130.5130 117.7278
L130.4654 117.6326
" />
<path d="M130.4654 117.6326
L130.4654 117.4897
" />
<path d="M130.4654 117.4897
L130.5130 117.3945
" />
<path d="M130.5130 117.3945
L130.6082 117.3469
" />
<path d="M130.6082 117.3469
L131.1321 117.3469
" />
<path d="M130.6082 117.3469
L130.5130 117.2993
" />
<path d="M130.5130 117.2993
L130.4654 117.2040
" />
<path d="M130.4654 117.2040
L130.4654 117.0612
" />
<path d="M130.4654 117.0612
L130.5130 116.9659
" />
<path d="M130.5130 116.9659
L130.6082 116.9183
" />
<path d="M130.6082 116.9183
L131.1321 116.9183
" />
<path d="M131.1321 116.4421
L130.4654 116.4421
" />
<path d="M130.5606 116.4421
L130.5130 116.3945
" />
<path d="M130.5130 116.3945
L130.4654 116.2993
" />
<path d="M130.4654 116.2993
L130.4654 116.1564
" />
<path d="M130.4654 116.1564
L130.5130 116.0612
" />
<path d="M130.5130 116.0612
L130.6082 116.0136
" />
<path d="M130.6082 116.0136
L131.1321 116.0136
" />
<path d="M130.6082 116.0136
L130.5130 115.9659
" />
<path d="M130.5130 115.9659
L130.4654 115.8707
" />
<path d="M130.4654 115.8707
L130.4654 115.7278
" />
<path d="M130.4654 115.7278
L130.5130 115.6326
" />
<path d="M130.5130 115.6326
L130.6082 115.5850
" />
<path d="M130.6082 115.5850
L131.1321 115.5850
" />
</g><path d="M138.9272 99.8914
L131.2408 99.8914
" />
<path d="M131.2408 140.4214
L138.6872 140.4214
" />
<path d="M131.8272 99.8914
L131.8272 140.4214
" />
<path d="M131.8272 99.8914
L132.4137 101.0179
" />
<path d="M131.8272 99.8914
L131.2408 101.0179
" />
<path d="M131.8272 140.4214
L131.2408 139.2949
" />
<path d="M131.8272 140.4214
L132.4137 139.2949
" />
<g transform="rotate(-90.000000 174.1272 117.8164)">
<text x="174.1272" y="118.3164"
textLength="9.8690" font-size="1.3333" lengthAdjust="spacingAndGlyphs"
text-anchor="middle" opacity="0" stroke-opacity="0">45.1100 mm</text>
</g>
<g class="stroked-text"><desc>45.1100 mm</desc>
<path d="M173.9154 121.9593
L174.5821 121.9593
" />
<path d="M173.5344 122.1974
L174.2487 122.4355
" />
<path d="M174.2487 122.4355
L174.2487 121.8164
" />
<path d="M173.5821 120.9593
L173.5821 121.4355
" />
<path d="M173.5821 121.4355
L174.0582 121.4831
" />
<path d="M174.0582 121.4831
L174.0106 121.4355
" />
<path d="M174.0106 121.4355
L173.9630 121.3402
" />
<path d="M173.9630 121.3402
L173.9630 121.1021
" />
<path d="M173.9630 121.1021
L174.0106 121.0069
" />
<path d="M174.0106 121.0069
L174.0582 120.9593
" />
<path d="M174.0582 120.9593
L174.1535 120.9116
" />
<path d="M174.1535 120.9116
L174.3916 120.9116
" />
<path d="M174.3916 120.9116
L174.4868 120.9593
" />
<path d="M174.4868 120.9593
L174.5344 121.0069
" />
<path d="M174.5344 121.0069
L174.5821 121.1021
" />
<path d="M174.5821 121.1021
L174.5821 121.3402
" />
<path d="M174.5821 121.3402
L174.5344 121.4355
" />
<path d="M174.5344 121.4355
L174.4868 121.4831
" />
<path d="M174.4868 120.4831
L174.5344 120.4355
" />
<path d="M174.5344 120.4355
L174.5821 120.4831
" />
<path d="M174.5821 120.4831
L174.5344 120.5307
" />
<path d="M174.5344 120.5307
L174.4868 120.4831
" />
<path d="M174.4868 120.4831
L174.5821 120.4831
" />
<path d="M174.5821 119.4831
L174.5821 120.0545
" />
<path d="M174.5821 119.7688
L173.5821 119.7688
" />
<path d="M173.5821 119.7688
L173.7249 119.8640
" />
<path d="M173.7249 119.8640
L173.8201 119.9593
" />
<path d="M173.8201 119.9593
L173.8678 120.0545
" />
<path d="M174.5821 118.5307
L174.5821 119.1021
" />
<path d="M174.5821 118.8164
L173.5821 118.8164
" />
<path d="M173.5821 118.8164
L173.7249 118.9116
" />
<path d="M173.7249 118.9116
L173.8201 119.0069
" />
<path d="M173.8201 119.0069
L173.8678 119.1021
" />
<path d="M173.5821 117.9116
L173.5821 117.8164
" />
<path d="M173.5821 117.8164
L173.6297 117.7212
" />
<path d="M173.6297 117.7212
L173.6773 117.6736
" />
<path d="M173.6773 117.6736
L173.7725 117.6259
" />
<path d="M173.7725 117.6259
L173.9630 117.5783
" />
<path d="M173.9630 117.5783
L174.2011 117.5783
" />
<path d="M174.2011 117.5783
L174.3916 117.6259
" />
<path d="M174.3916 117.6259
L174.4868 117.6736
" />
<path d="M174.4868 117.6736
L174.5344 117.7212
" />
<path d="M174.5344 117.7212
L174.5821 117.8164
" />
<path d="M174.5821 117.8164
L174.5821 117.9116
" />
<path d="M174.5821 117.9116
L174.5344 118.0069
" />
<path d="M174.5344 118.0069
L174.4868 118.0545
" />
<path d="M174.4868 118.0545
L174.3916 118.1021
" />
<path d="M174.3916 118.1021
L174.2011 118.1497
" />
<path d="M174.2011 118.1497
L173.9630 118.1497
" />
<path d="M173.9630 118.1497
L173.7725 118.1021
" />
<path d="M173.7725 118.1021
L173.6773 118.0545
" />
<path d="M173.6773 118.0545
L173.6297 118.0069
" />
<path d="M173.6297 118.0069
L173.5821 117.9116
" />
<path d="M173.5821 116.9593
L173.5821 116.8640
" />
<path d="M173.5821 116.8640
L173.6297 116.7688
" />
<path d="M173.6297 116.7688
L173.6773 116.7212
" />
<path d="M173.6773 116.7212
L173.7725 116.6736
" />
<path d="M173.7725 116.6736
L173.9630 116.6259
" />
<path d="M173.9630 116.6259
L174.2011 116.6259
" />
<path d="M174.2011 116.6259
L174.3916 116.6736
" />
<path d="M174.3916 116.6736
L174.4868 116.7212
" />
<path d="M174.4868 116.7212
L174.5344 116.7688
" />
<path d="M174.5344 116.7688
L174.5821 116.8640
" />
<path d="M174.5821 116.8640
L174.5821 116.9593
" />
<path d="M174.5821 116.9593
L174.5344 117.0545
" />
<path d="M174.5344 117.0545
L174.4868 117.1021
" />
<path d="M174.4868 117.1021
L174.3916 117.1497
" />
<path d="M174.3916 117.1497
L174.2011 117.1974
" />
<path d="M174.2011 117.1974
L173.9630 117.1974
" />
<path d="M173.9630 117.1974
L173.7725 117.1497
" />
<path d="M173.7725 117.1497
L173.6773 117.1021
" />
<path d="M173.6773 117.1021
L173.6297 117.0545
" />
<path d="M173.6297 117.0545
L173.5821 116.9593
" />
<path d="M174.5821 115.4355
L173.9154 115.4355
" />
<path d="M174.0106 115.4355
L173.9630 115.3878
" />
<path d="M173.9630 115.3878
L173.9154 115.2926
" />
<path d="M173.9154 115.2926
L173.9154 115.1497
" />
<path d="M173.9154 115.1497
L173.9630 115.0545
" />
<path d="M173.9630 115.0545
L174.0582 115.0069
" />
<path d="M174.0582 115.0069
L174.5821 115.0069
" />
<path d="M174.0582 115.0069
L173.9630 114.9593
" />
<path d="M173.9630 114.9593
L173.9154 114.8640
" />
<path d="M173.9154 114.8640
L173.9154 114.7212
" />
<path d="M173.9154 114.7212
L173.9630 114.6259
" />
<path d="M173.9630 114.6259
L174.0582 114.5783
" />
<path d="M174.0582 114.5783
L174.5821 114.5783
" />
<path d="M174.5821 114.1021
L173.9154 114.1021
" />
<path d="M174.0106 114.1021
L173.9630 114.0545
" />
<path d="M173.9630 114.0545
L173.9154 113.9593
" />
<path d="M173.9154 113.9593
L173.9154 113.8164
" />
<path d="M173.9154 113.8164
L173.9630 113.7212
" />
<path d="M173.9630 113.7212
L174.0582 113.6736
" />
<path d="M174.0582 113.6736
L174.5821 113.6736
" />
<path d="M174.0582 113.6736
L173.9630 113.6259
" />
<path d="M173.9630 113.6259
L173.9154 113.5307
" />
<path d="M173.9154 113.5307
L173.9154 113.3878
" />
<path d="M173.9154 113.3878
L173.9630 113.2926
" />
<path d="M173.9630 113.2926
L174.0582 113.2450
" />
<path d="M174.0582 113.2450
L174.5821 113.2450
" />
</g><path d="M169.7072 95.2614
L175.8637 95.2614
" />
<path d="M175.8637 140.3714
L169.7472 140.3714
" />
<path d="M175.2772 95.2614
L175.2772 140.3714
" />
<path d="M175.2772 95.2614
L175.8637 96.3879
" />
<path d="M175.2772 95.2614
L174.6908 96.3879
" />
<path d="M175.2772 140.3714
L174.6908 139.2449
" />
<path d="M175.2772 140.3714
L175.8637 139.2449
" />
<text x="154.4572" y="88.8114"
textLength="9.8690" font-size="1.3333" lengthAdjust="spacingAndGlyphs"
text-anchor="middle" opacity="0" stroke-opacity="0">34.9000 mm</text>
<g class="stroked-text"><desc>34.9000 mm</desc>
<path d="M149.7906 87.7662
L150.4096 87.7662
" />
<path d="M150.4096 87.7662
L150.0763 88.1472
" />
<path d="M150.0763 88.1472
L150.2191 88.1472
" />
<path d="M150.2191 88.1472
L150.3144 88.1948
" />
<path d="M150.3144 88.1948
L150.3620 88.2424
" />
<path d="M150.3620 88.2424
L150.4096 88.3377
" />
<path d="M150.4096 88.3377
L150.4096 88.5758
" />
<path d="M150.4096 88.5758
L150.3620 88.6710
" />
<path d="M150.3620 88.6710
L150.3144 88.7186
" />
<path d="M150.3144 88.7186
L150.2191 88.7662
" />
<path d="M150.2191 88.7662
L149.9334 88.7662
" />
<path d="M149.9334 88.7662
L149.8382 88.7186
" />
<path d="M149.8382 88.7186
L149.7906 88.6710
" />
<path d="M151.2668 88.0996
L151.2668 88.7662
" />
<path d="M151.0287 87.7186
L150.7906 88.4329
" />
<path d="M150.7906 88.4329
L151.4096 88.4329
" />
<path d="M151.7906 88.6710
L151.8382 88.7186
" />
<path d="M151.8382 88.7186
L151.7906 88.7662
" />
<path d="M151.7906 88.7662
L151.7429 88.7186
" />
<path d="M151.7429 88.7186
L151.7906 88.6710
" />
<path d="M151.7906 88.6710
L151.7906 88.7662
" />
<path d="M152.3144 88.7662
L152.5049 88.7662
" />
<path d="M152.5049 88.7662
L152.6001 88.7186
" />
<path d="M152.6001 88.7186
L152.6477 88.6710
" />
<path d="M152.6477 88.6710
L152.7429 88.5281
" />
<path d="M152.7429 88.5281
L152.7906 88.3377
" />
<path d="M152.7906 88.3377
L152.7906 87.9567
" />
<path d="M152.7906 87.9567
L152.7429 87.8615
" />
<path d="M152.7429 87.8615
L152.6953 87.8139
" />
<path d="M152.6953 87.8139
L152.6001 87.7662
" />
<path d="M152.6001 87.7662
L152.4096 87.7662
" />
<path d="M152.4096 87.7662
L152.3144 87.8139
" />
<path d="M152.3144 87.8139
L152.2668 87.8615
" />
<path d="M152.2668 87.8615
L152.2191 87.9567
" />
<path d="M152.2191 87.9567
L152.2191 88.1948
" />
<path d="M152.2191 88.1948
L152.2668 88.2900
" />
<path d="M152.2668 88.2900
L152.3144 88.3377
" />
<path d="M152.3144 88.3377
L152.4096 88.3853
" />
<path d="M152.4096 88.3853
L152.6001 88.3853
" />
<path d="M152.6001 88.3853
L152.6953 88.3377
" />
<path d="M152.6953 88.3377
L152.7429 88.2900
" />
<path d="M152.7429 88.2900
L152.7906 88.1948
" />
<path d="M153.4096 87.7662
L153.5049 87.7662
" />
<path d="M153.5049 87.7662
L153.6001 87.8139
" />
<path d="M153.6001 87.8139
L153.6477 87.8615
" />
<path d="M153.6477 87.8615
L153.6953 87.9567
" />
<path d="M153.6953 87.9567
L153.7429 88.1472
" />
<path d="M153.7429 88.1472
L153.7429 88.3853
" />
<path d="M153.7429 88.3853
L153.6953 88.5758
" />
<path d="M153.6953 88.5758
L153.6477 88.6710
" />
<path d="M153.6477 88.6710
L153.6001 88.7186
" />
<path d="M153.6001 88.7186
L153.5049 88.7662
" />
<path d="M153.5049 88.7662
L153.4096 88.7662
" />
<path d="M153.4096 88.7662
L153.3144 88.7186
" />
<path d="M153.3144 88.7186
L153.2668 88.6710
" />
<path d="M153.2668 88.6710
L153.2191 88.5758
" />
<path d="M153.2191 88.5758
L153.1715 88.3853
" />
<path d="M153.1715 88.3853
L153.1715 88.1472
" />
<path d="M153.1715 88.1472
L153.2191 87.9567
" />
<path d="M153.2191 87.9567
L153.2668 87.8615
" />
<path d="M153.2668 87.8615
L153.3144 87.8139
" />
<path d="M153.3144 87.8139
L153.4096 87.7662
" />
<path d="M154.3620 87.7662
L154.4572 87.7662
" />
<path d="M154.4572 87.7662
L154.5525 87.8139
" />
<path d="M154.5525 87.8139
L154.6001 87.8615
" />
<path d="M154.6001 87.8615
L154.6477 87.9567
" />
<path d="M154.6477 87.9567
L154.6953 88.1472
" />
<path d="M154.6953 88.1472
L154.6953 88.3853
" />
<path d="M154.6953 88.3853
L154.6477 88.5758
" />
<path d="M154.6477 88.5758
L154.6001 88.6710
" />
<path d="M154.6001 88.6710
L154.5525 88.7186
" />
<path d="M154.5525 88.7186
L154.4572 88.7662
" />
<path d="M154.4572 88.7662
L154.3620 88.7662
" />
<path d="M154.3620 88.7662
L154.2668 88.7186
" />
<path d="M154.2668 88.7186
L154.2191 88.6710
" />
<path d="M154.2191 88.6710
L154.1715 88.5758
" />
<path d="M154.1715 88.5758
L154.1239 88.3853
" />
<path d="M154.1239 88.3853
L154.1239 88.1472
" />
<path d="M154.1239 88.1472
L154.1715 87.9567
" />
<path d="M154.1715 87.9567
L154.2191 87.8615
" />
<path d="M154.2191 87.8615
L154.2668 87.8139
" />
<path d="M154.2668 87.8139
L154.3620 87.7662
" />
<path d="M155.3144 87.7662
L155.4096 87.7662
" />
<path d="M155.4096 87.7662
L155.5049 87.8139
" />
<path d="M155.5049 87.8139
L155.5525 87.8615
" />
<path d="M155.5525 87.8615
L155.6001 87.9567
" />
<path d="M155.6001 87.9567
L155.6477 88.1472
" />
<path d="M155.6477 88.1472
L155.6477 88.3853
" />
<path d="M155.6477 88.3853
L155.6001 88.5758
" />
<path d="M155.6001 88.5758
L155.5525 88.6710
" />
<path d="M155.5525 88.6710
L155.5049 88.7186
" />
<path d="M155.5049 88.7186
L155.4096 88.7662
" />
<path d="M155.4096 88.7662
L155.3144 88.7662
" />
<path d="M155.3144 88.7662
L155.2191 88.7186
" />
<path d="M155.2191 88.7186
L155.1715 88.6710
" />
<path d="M155.1715 88.6710
L155.1239 88.5758
" />
<path d="M155.1239 88.5758
L155.0763 88.3853
" />
<path d="M155.0763 88.3853
L155.0763 88.1472
" />
<path d="M155.0763 88.1472
L155.1239 87.9567
" />
<path d="M155.1239 87.9567
L155.1715 87.8615
" />
<path d="M155.1715 87.8615
L155.2191 87.8139
" />
<path d="M155.2191 87.8139
L155.3144 87.7662
" />
<path d="M156.8382 88.7662
L156.8382 88.0996
" />
<path d="M156.8382 88.1948
L156.8858 88.1472
" />
<path d="M156.8858 88.1472
L156.9810 88.0996
" />
<path d="M156.9810 88.0996
L157.1239 88.0996
" />
<path d="M157.1239 88.0996
L157.2191 88.1472
" />
<path d="M157.2191 88.1472
L157.2668 88.2424
" />
<path d="M157.2668 88.2424
L157.2668 88.7662
" />
<path d="M157.2668 88.2424
L157.3144 88.1472
" />
<path d="M157.3144 88.1472
L157.4096 88.0996
" />
<path d="M157.4096 88.0996
L157.5525 88.0996
" />
<path d="M157.5525 88.0996
L157.6477 88.1472
" />
<path d="M157.6477 88.1472
L157.6953 88.2424
" />
<path d="M157.6953 88.2424
L157.6953 88.7662
" />
<path d="M158.1715 88.7662
L158.1715 88.0996
" />
<path d="M158.1715 88.1948
L158.2191 88.1472
" />
<path d="M158.2191 88.1472
L158.3144 88.0996
" />
<path d="M158.3144 88.0996
L158.4572 88.0996
" />
<path d="M158.4572 88.0996
L158.5525 88.1472
" />
<path d="M158.5525 88.1472
L158.6001 88.2424
" />
<path d="M158.6001 88.2424
L158.6001 88.7662
" />
<path d="M158.6001 88.2424
L158.6477 88.1472
" />
<path d="M158.6477 88.1472
L158.7429 88.0996
" />
<path d="M158.7429 88.0996
L158.8858 88.0996
" />
<path d="M158.8858 88.0996
L158.9810 88.1472
" />
<path d="M158.9810 88.1472
L159.0287 88.2424
" />
<path d="M159.0287 88.2424
L159.0287 88.7662
" />
</g><path d="M137.0072 101.8914
L137.0072 88.8750
" />
<path d="M171.9072 88.8750
L171.9072 101.9314
" />
<path d="M137.0072 89.4614
L171.9072 89.4614
" />
<path d="M137.0072 89.4614
L138.1337 88.8750
" />
<path d="M137.0072 89.4614
L138.1337 90.0478
" />
<path d="M171.9072 89.4614
L170.7807 90.0478
" />
<path d="M171.9072 89.4614
L170.7807 88.8750
" />
<path style="fill:#000000; fill-opacity:1.0000; 
stroke:#000000; stroke-width:0.1500; stroke-opacity:1; 
stroke-linecap:round; stroke-linejoin:round;fill-rule:evenodd;"
d="M 142.3222,129.4014
144.0322,129.4014
144.0322,131.6764
142.3222,131.6764
Z" /> 
<path style="fill:none; 
stroke:#000000; stroke-width:0.1500; stroke-opacity:1; 
stroke-linecap:round; stroke-linejoin:round;fill:none"
d="M 142.3845,129.2964
166.4772,129.2964
166.4772,131.8064
142.3845,131.8064
Z" /> 
<path style="fill:#000000; fill-opacity:1.0000; 
stroke:#000000; stroke-width:0.1500; stroke-opacity:1; 
stroke-linecap:round; stroke-linejoin:round;fill-rule:evenodd;"
d="M 145.8772,129.3664
147.5372,129.3664
147.5372,131.7364
145.8772,131.7364
Z" /> 
<path style="fill:#000000; fill-opacity:1.0000; 
stroke:#000000; stroke-width:0.1500; stroke-opacity:1; 
stroke-linecap:round; stroke-linejoin:round;fill-rule:evenodd;"
d="M 149.5872,129.3264
151.5472,129.3264
151.5472,131.6964
149.5872,131.6964
Z" /> 
<path style="fill:#000000; fill-opacity:1.0000; 
stroke:#000000; stroke-width:0.1500; stroke-opacity:1; 
stroke-linecap:round; stroke-linejoin:round;fill-rule:evenodd;"
d="M 153.6172,129.3164
156.1172,129.3164
156.1172,131.6864
153.6172,131.6864
Z" /> 
<path style="fill:#000000; fill-opacity:1.0000; 
stroke:#000000; stroke-width:0.1500; stroke-opacity:1; 
stroke-linecap:round; stroke-linejoin:round;fill-rule:evenodd;"
d="M 157.8172,129.2964
159.5672,129.2964
159.5672,131.6664
157.8172,131.6664
Z" /> 
<path style="fill:#000000; fill-opacity:1.0000; 
stroke:#000000; stroke-width:0.1500; stroke-opacity:1; 
stroke-linecap:round; stroke-linejoin:round;fill-rule:evenodd;"
d="M 161.7272,129.3264
163.6872,129.3264
163.6872,131.6964
161.7272,131.6964
Z" /> 
<path style="fill:#000000; fill-opacity:1.0000; 
stroke:#000000; stroke-width:0.1500; stroke-opacity:1; 
stroke-linecap:round; stroke-linejoin:round;fill-rule:evenodd;"
d="M 165.6422,129.3414
166.3722,129.3414
166.3722,131.7114
165.6422,131.7114
Z" /> 
</g>
<g style="fill:none; 
stroke:#000000; stroke-width:0.1500; stroke-opacity:1; 
stroke-linecap:round; stroke-linejoin:round;">
<g transform="rotate(-90.000000 138.7300 104.6700)">
<text x="138.7300" y="104.6700"
textLength="1.2024" font-size="1.3333" lengthAdjust="spacingAndGlyphs"
text-anchor="start" opacity="0" stroke-opacity="0">2</text>
</g>
<g class="stroked-text"><desc>2</desc>
<path d="M137.6951 104.3808
L137.6474 104.3332
" />
<path d="M137.6474 104.3332
L137.5998 104.2380
" />
<path d="M137.5998 104.2380
L137.5998 103.9999
" />
<path d="M137.5998 103.9999
L137.6474 103.9046
" />
<path d="M137.6474 103.9046
L137.6951 103.8570
" />
<path d="M137.6951 103.8570
L137.7903 103.8094
" />
<path d="M137.7903 103.8094
L137.8855 103.8094
" />
<path d="M137.8855 103.8094
L138.0284 103.8570
" />
<path d="M138.0284 103.8570
L138.5998 104.4285
" />
<path d="M138.5998 104.4285
L138.5998 103.8094
" />
</g><g transform="rotate(-90.000000 138.7300 109.0500)">
<text x="138.7300" y="109.0500"
textLength="1.2024" font-size="1.3333" lengthAdjust="spacingAndGlyphs"
text-anchor="start" opacity="0" stroke-opacity="0">1</text>
</g>
<g class="stroked-text"><desc>1</desc>
<path d="M138.5998 108.1894
L138.5998 108.7608
" />
<path d="M138.5998 108.4751
L137.5998 108.4751
" />
<path d="M137.5998 108.4751
L137.7427 108.5704
" />
<path d="M137.7427 108.5704
L137.8379 108.6656
" />
<path d="M137.8379 108.6656
L137.8855 108.7608
" />
</g><path style="fill:#000000; fill-opacity:1.0000; stroke:none;fill-rule:evenodd;"
d="M 146.3942,137.3170
146.2850,137.3115
146.1916,137.2960
146.1334,137.2778
146.0823,137.2524
146.0375,137.2197
145.9993,137.1796
145.9663,137.1292
145.9387,137.0669
145.9203,137.0010
145.9081,136.9187
145.9037,136.8168
145.9078,136.7236
145.9194,136.6456
145.9373,136.5808
145.9637,136.5192
145.9957,136.4681
146.0332,136.4260
146.0772,136.3908
146.1271,136.3628
146.1838,136.3419
146.2751,136.3232
146.3812,136.3166
146.4514,136.3190
146.5143,136.3257
146.5736,136.3371
146.6208,136.3515
146.6208,136.5875
146.5544,136.5676
146.4822,136.5553
146.4034,136.5511
146.3525,136.5547
146.3136,136.5644
146.2804,136.5820
146.2534,136.6085
146.2335,136.6428
146.2190,136.6904
146.2114,136.7444
146.2085,136.8157
146.2118,136.8906
146.2204,136.9446
146.2363,136.9912
146.2569,137.0237
146.2845,137.0479
146.3186,137.0636
146.3579,137.0717
146.4078,137.0748
146.5195,137.0671
146.5759,137.0565
146.6325,137.0398
146.6325,137.2776
146.5851,137.2926
146.5245,137.3057
146.4608,137.3142
Z" /> 
<path style="fill:#000000; fill-opacity:1.0000; stroke:none;fill-rule:evenodd;"
d="M 147.7688,137.3034
147.4721,137.3034
147.4048,137.0982
147.0409,137.0982
146.9722,137.3034
146.6810,137.3034
146.8383,136.8755
147.1150,136.8755
147.3321,136.8755
147.2327,136.5706
147.2159,136.5706
147.1150,136.8755
146.8383,136.8755
147.0381,136.3323
147.4146,136.3323
Z" /> 
<path style="fill:#000000; fill-opacity:1.0000; stroke:none;fill-rule:evenodd;"
d="M 147.8557,136.3283
148.2753,136.3283
148.4767,136.9383
148.4851,136.9383
148.4851,136.3283
148.7564,136.3283
148.7564,137.3014
148.3690,137.3014
148.1382,136.6508
148.1298,136.6508
148.1298,137.3014
147.8557,137.3014
Z" /> 
<path style="fill:#000000; fill-opacity:1.0000; stroke:none;fill-rule:evenodd;"
d="M 149.1476,137.5828
149.0800,137.4732
149.0248,137.3660
148.9812,137.2607
148.9488,137.1520
148.9292,137.0379
148.9225,136.9176
148.9262,136.8248
148.9372,136.7370
148.9556,136.6511
148.9812,136.5675
149.0139,136.4857
149.0540,136.4037
149.1002,136.3229
149.1547,136.2385
149.4275,136.2385
149.3553,136.3652
149.3002,136.4816
149.2602,136.5886
149.2308,136.6987
149.2135,136.8059
149.2078,136.9106
149.2134,137.0173
149.2305,137.1263
149.2596,137.2383
149.2989,137.3473
149.3517,137.4619
149.4192,137.5828
Z" /> 
<path style="fill:#000000; fill-opacity:1.0000; stroke:none;fill-rule:evenodd;"
d="M 149.8047,136.5653
149.5702,136.6115
149.5702,136.3872
149.8666,136.3283
150.0735,136.3283
150.0735,137.3014
149.8047,137.3014
Z" /> 
<path style="fill:#000000; fill-opacity:1.0000; stroke:none;fill-rule:evenodd;"
d="M 150.2971,137.5828
150.3694,137.4560
150.4245,137.3397
150.4644,137.2327
150.4939,137.1226
150.5112,137.0154
150.5169,136.9106
150.5113,136.8040
150.4942,136.6950
150.4651,136.5830
150.4257,136.4740
150.3730,136.3593
150.3055,136.2385
150.5771,136.2385
150.6448,136.3490
150.6999,136.4565
150.7435,136.5613
150.7758,136.6695
150.7955,136.7834
150.8022,136.9037
150.7984,136.9975
150.7875,137.0850
150.7692,137.1702
150.7435,137.2537
150.7108,137.3355
150.6707,137.4175
150.6245,137.4983
150.5700,137.5828
Z" /> 
<path style="fill:#000000; fill-opacity:1.0000; stroke:none;fill-rule:evenodd;"
d="M 157.8442,137.3170
157.7350,137.3115
157.6416,137.2960
157.5834,137.2778
157.5323,137.2524
157.4875,137.2197
157.4493,137.1796
157.4163,137.1292
157.3887,137.0669
157.3703,137.0010
157.3581,136.9187
157.3537,136.8168
157.3578,136.7236
157.3694,136.6456
157.3872,136.5808
157.4137,136.5192
157.4457,136.4681
157.4832,136.4260
157.5272,136.3908
157.5771,136.3628
157.6338,136.3419
157.7251,136.3232
157.8312,136.3166
157.9014,136.3190
157.9643,136.3257
158.0236,136.3371
158.0708,136.3515
158.0708,136.5875
158.0044,136.5676
157.9322,136.5553
157.8534,136.5511
157.8025,136.5547
157.7636,136.5644
157.7304,136.5820
157.7034,136.6085
157.6835,136.6428
157.6690,136.6904
157.6614,136.7444
157.6585,136.8157
157.6618,136.8906
157.6704,136.9446
157.6863,136.9912
157.7069,137.0237
157.7345,137.0479
157.7686,137.0636
157.8079,137.0717
157.8578,137.0748
157.9695,137.0671
158.0259,137.0565
158.0825,137.0398
158.0825,137.2776
158.0351,137.2926
157.9745,137.3057
157.9108,137.3142
Z" /> 
<path style="fill:#000000; fill-opacity:1.0000; stroke:none;fill-rule:evenodd;"
d="M 159.2188,137.3034
158.9221,137.3034
158.8548,137.0982
158.4909,137.0982
158.4222,137.3034
158.1310,137.3034
158.2883,136.8755
158.5650,136.8755
158.7821,136.8755
158.6827,136.5706
158.6659,136.5706
158.5650,136.8755
158.2883,136.8755
158.4881,136.3323
158.8646,136.3323
Z" /> 
<path style="fill:#000000; fill-opacity:1.0000; stroke:none;fill-rule:evenodd;"
d="M 159.3057,136.3283
159.7253,136.3283
159.9267,136.9383
159.9351,136.9383
159.9351,136.3283
160.2064,136.3283
160.2064,137.3014
159.8190,137.3014
159.5882,136.6508
159.5798,136.6508
159.5798,137.3014
159.3057,137.3014
Z" /> 
<path style="fill:#000000; fill-opacity:1.0000; stroke:none;fill-rule:evenodd;"
d="M 160.5976,137.5828
160.5300,137.4732
160.4748,137.3660
160.4312,137.2607
160.3988,137.1520
160.3792,137.0379
160.3725,136.9176
160.3762,136.8248
160.3872,136.7370
160.4056,136.6511
160.4312,136.5675
160.4639,136.4857
160.5040,136.4037
160.5502,136.3229
160.6047,136.2385
160.8775,136.2385
160.8053,136.3652
160.7502,136.4816
160.7102,136.5886
160.6808,136.6987
160.6635,136.8059
160.6578,136.9106
160.6634,137.0173
160.6805,137.1263
160.7096,137.2383
160.7489,137.3473
160.8017,137.4619
160.8692,137.5828
Z" /> 
<path style="fill:#000000; fill-opacity:1.0000; stroke:none;fill-rule:evenodd;"
d="M 160.9538,137.0799
161.1410,136.9246
161.2728,136.8064
161.3208,136.7555
161.3506,136.7155
161.3701,136.6756
161.3759,136.6421
161.3721,136.6040
161.3622,136.5767
161.3471,136.5574
161.3259,136.5447
161.2904,136.5353
161.2342,136.5316
161.1845,136.5339
161.1297,136.5413
161.0734,136.5544
161.0071,136.5763
161.0071,136.3579
161.0695,136.3385
161.1416,136.3240
161.2164,136.3156
161.2930,136.3127
161.3806,136.3179
161.4525,136.3321
161.5114,136.3540
161.5593,136.3829
161.6001,136.4214
161.6290,136.4670
161.6470,136.5212
161.6533,136.5862
161.6511,136.6397
161.6449,136.6865
161.6317,136.7316
161.6071,136.7804
161.5728,136.8287
161.5202,136.8871
161.4567,136.9464
161.3646,137.0224
161.2973,137.0757
161.2973,137.0840
161.6611,137.0840
161.6611,137.2995
160.9538,137.2995
Z" /> 
<path style="fill:#000000; fill-opacity:1.0000; stroke:none;fill-rule:evenodd;"
d="M 161.7471,137.5828
161.8194,137.4560
161.8745,137.3397
161.9144,137.2327
161.9439,137.1226
161.9612,137.0154
161.9669,136.9106
161.9613,136.8040
161.9442,136.6950
161.9151,136.5830
161.8757,136.4740
161.8230,136.3593
161.7555,136.2385
162.0271,136.2385
162.0948,136.3490
162.1499,136.4565
162.1935,136.5613
162.2258,136.6695
162.2455,136.7834
162.2522,136.9037
162.2484,136.9975
162.2375,137.0850
162.2192,137.1702
162.1935,137.2537
162.1608,137.3355
162.1207,137.4175
162.0745,137.4983
162.0200,137.5828
Z" /> 
<path style="fill:#000000; fill-opacity:1.0000; stroke:none;fill-rule:evenodd;"
d="M 145.8149,131.7236
144.0926,131.7236
144.0926,131.5014
144.3148,131.5014
145.5927,131.5014
145.5927,131.0247
144.8697,131.0247
144.8697,129.5592
144.3148,129.5592
144.3148,131.5014
144.0926,131.5014
144.0926,129.3370
145.8149,129.3370
Z" /> 
<path style="fill:#000000; fill-opacity:1.0000; stroke:none;fill-rule:evenodd;"
d="M 149.6443,131.7336
147.4726,131.7336
147.4726,131.5114
147.6948,131.5114
148.2497,131.5114
148.2497,130.7142
148.8672,130.7142
148.8672,131.5114
149.4221,131.5114
149.4221,129.5653
148.8672,129.5653
148.8672,130.2531
148.2497,130.2531
148.2497,129.5653
147.6948,129.5653
147.6948,131.5114
147.4726,131.5114
147.4726,129.3431
149.6443,129.3431
Z" /> 
<path style="fill:#000000; fill-opacity:1.0000; stroke:none;fill-rule:evenodd;"
d="M 153.6493,131.7449
151.5479,131.7449
151.5479,130.5223
151.7701,130.5223
151.7787,130.7262
151.8020,130.8908
151.8373,131.0225
151.8909,131.1470
151.9560,131.2477
152.0322,131.3280
152.1219,131.3932
152.2250,131.4442
152.3433,131.4807
152.5339,131.5115
152.7626,131.5227
152.9448,131.5157
153.1285,131.4961
153.2938,131.4667
153.4270,131.4333
153.4270,130.3112
152.6271,130.3112
152.6271,130.7724
152.9112,130.7724
152.9112,131.0587
152.8625,131.0615
152.7886,131.0615
152.6670,131.0541
152.5811,131.0348
152.5101,130.9984
152.4585,130.9449
152.4239,130.8749
152.4015,130.7777
152.3914,130.6678
152.3875,130.5219
152.3933,130.3813
152.4086,130.2746
152.4380,130.1804
152.4799,130.1102
152.5375,130.0561
152.6115,130.0189
152.6984,129.9985
152.8159,129.9908
152.9295,129.9955
153.0552,130.0106
153.1807,130.0355
153.3002,130.0702
153.3002,129.5861
153.1937,129.5609
153.0606,129.5414
152.9134,129.5275
152.7677,129.5218
152.5444,129.5351
152.3530,129.5724
152.2339,129.6143
152.1299,129.6704
152.0390,129.7406
151.9614,129.8249
151.8950,129.9272
151.8401,130.0501
151.8029,130.1800
151.7788,130.3359
151.7701,130.5223
151.5479,130.5223
151.5479,129.2996
153.6493,129.2996
Z" /> 
<path style="fill:#000000; fill-opacity:1.0000; stroke:none;fill-rule:evenodd;"
d="M 157.8249,131.7236
156.1026,131.7236
156.1026,131.5014
156.3248,131.5014
157.6027,131.5014
157.6027,131.0247
156.8797,131.0247
156.8797,129.5592
156.3248,129.5592
156.3248,131.5014
156.1026,131.5014
156.1026,129.3370
157.8249,129.3370
Z" /> 
<path style="fill:#000000; fill-opacity:1.0000; stroke:none;fill-rule:evenodd;"
d="M 161.7843,131.7436
159.6126,131.7436
159.6126,131.5214
159.8348,131.5214
160.3897,131.5214
160.3897,130.7242
161.0072,130.7242
161.0072,131.5214
161.5621,131.5214
161.5621,129.5753
161.0072,129.5753
161.0072,130.2631
160.3897,130.2631
160.3897,129.5753
159.8348,129.5753
159.8348,131.5214
159.6126,131.5214
159.6126,129.3531
161.7843,129.3531
Z" /> 
<path style="fill:#000000; fill-opacity:1.0000; stroke:none;fill-rule:evenodd;"
d="M 165.7293,131.7449
163.6279,131.7449
163.6279,130.5223
163.8501,130.5223
163.8587,130.7262
163.8820,130.8908
163.9173,131.0225
163.9709,131.1470
164.0360,131.2477
164.1122,131.3280
164.2019,131.3932
164.3050,131.4442
164.4233,131.4807
164.6139,131.5115
164.8426,131.5227
165.0248,131.5157
165.2085,131.4961
165.3738,131.4667
165.5070,131.4333
165.5070,130.3112
164.7071,130.3112
164.7071,130.7724
164.9912,130.7724
164.9912,131.0587
164.9425,131.0615
164.8686,131.0615
164.7470,131.0541
164.6611,131.0348
164.5901,130.9984
164.5385,130.9449
164.5039,130.8749
164.4815,130.7777
164.4714,130.6678
164.4675,130.5219
164.4733,130.3813
164.4886,130.2746
164.5180,130.1804
164.5599,130.1102
164.6175,130.0561
164.6915,130.0189
164.7784,129.9985
164.8959,129.9908
165.0095,129.9955
165.1352,130.0106
165.2607,130.0355
165.3802,130.0702
165.3802,129.5861
165.2737,129.5609
165.1406,129.5414
164.9934,129.5275
164.8477,129.5218
164.6244,129.5351
164.4330,129.5724
164.3139,129.6143
164.2099,129.6704
164.1190,129.7406
164.0414,129.8249
163.9750,129.9272
163.9201,130.0501
163.8829,130.1800
163.8588,130.3359
163.8501,130.5223
163.6279,130.5223
163.6279,129.2996
165.7293,129.2996
Z" /> 
</g>
<g style="fill:none; 
stroke:#000000; stroke-width:0.1200; stroke-opacity:1; 
stroke-linecap:round; stroke-linejoin:round;">
<path d="M152.1072 113.2392
L152.1072 113.0236
" />
<path d="M152.8272 113.2392
L152.8272 113.0236
" />
<path d="M157.4372 120.9714
L157.4372 120.4014
" />
<path d="M157.4372 125.1314
L157.4372 122.5914
" />
<path d="M160.1972 120.4014
L157.4372 120.4014
" />
<path d="M160.1972 123.5114
L160.1972 120.4014
" />
<path d="M160.1972 125.1314
L161.6672 125.1314
" />
<path d="M160.1972 125.7014
L157.4372 125.7014
" />
<path d="M160.1972 125.7014
L160.1972 125.1314
" />
<path d="M154.5036 116.5514
L154.8109 116.5514
" />
<path d="M154.5036 117.3114
L154.8109 117.3114
" />
<path d="M151.0672 113.2392
L151.0672 113.0236
" />
<path d="M151.7872 113.2392
L151.7872 113.0236
" />
<path d="M162.5872 113.2392
L162.5872 113.0236
" />
<path d="M163.3072 113.2392
L163.3072 113.0236
" />
<path d="M139.1872 103.5664
L139.7572 103.5664
" />
<path d="M139.1872 108.8664
L139.1872 103.5664
" />
<path d="M139.1872 108.8664
L139.7572 108.8664
" />
<path d="M139.7572 110.2564
L139.7572 108.8664
" />
<path d="M141.3772 103.5664
L142.2972 103.5664
" />
<path d="M141.3772 108.8664
L142.2972 108.8664
" />
<path d="M143.9172 103.5664
L144.8372 103.5664
" />
<path d="M143.9172 108.8664
L144.8372 108.8664
" />
<path d="M146.4572 103.5664
L147.3772 103.5664
" />
<path d="M146.4572 108.8664
L147.3772 108.8664
" />
<path d="M148.9972 103.5664
L149.9172 103.5664
" />
<path d="M148.9972 108.8664
L149.9172 108.8664
" />
<path d="M151.5372 103.5664
L152.4572 103.5664
" />
<path d="M151.5372 108.8664
L152.4572 108.8664
" />
<path d="M154.0772 103.5664
L154.9972 103.5664
" />
<path d="M154.0772 108.8664
L154.9972 108.8664
" />
<path d="M156.6172 103.5664
L157.5372 103.5664
" />
<path d="M156.6172 108.8664
L157.5372 108.8664
" />
<path d="M159.1572 103.5664
L160.0772 103.5664
" />
<path d="M159.1572 108.8664
L160.0772 108.8664
" />
<path d="M161.6972 103.5664
L162.6172 103.5664
" />
<path d="M161.6972 108.8664
L162.6172 108.8664
" />
<path d="M164.2372 103.5664
L165.1572 103.5664
" />
<path d="M164.2372 108.8664
L165.1572 108.8664
" />
<path d="M166.7772 103.5664
L167.6972 103.5664
" />
<path d="M166.7772 108.8664
L167.6972 108.8664
" />
<path d="M169.3172 103.5664
L169.8872 103.5664
" />
<path d="M169.3172 108.8664
L169.8872 108.8664
" />
<path d="M169.8872 108.8664
L169.8872 103.5664
" />
<path d="M160.0643 126.3864
L159.6102 126.3864
" />
<path d="M160.0643 127.8564
L159.6102 127.8564
" />
<path d="M162.2872 117.8778
L162.2872 118.1851
" />
<path d="M163.0472 117.8778
L163.0472 118.1851
" />
<path d="M146.2772 120.7814
L146.2772 120.2114
" />
<path d="M146.2772 124.9414
L146.2772 122.4014
" />
<path d="M149.0372 120.2114
L146.2772 120.2114
" />
<path d="M149.0372 123.3214
L149.0372 120.2114
" />
<path d="M149.0372 124.9414
L150.5072 124.9414
" />
<path d="M149.0372 125.5114
L146.2772 125.5114
" />
<path d="M149.0372 125.5114
L149.0372 124.9414
" />
</g>
<g style="fill:none; 
stroke:#000000; stroke-width:0.2540; stroke-opacity:1; 
stroke-linecap:round; stroke-linejoin:round;">
<path d="M142.3850 131.7814
L142.3850 141.7514
" />
<path d="M142.4507 131.7714
L143.9792 131.7714
" />
<path d="M145.4415 131.7814
L147.5185 131.7814
" />
<path d="M149.2515 131.8114
L151.3285 131.8114
" />
<path d="M152.8207 131.8214
L154.3492 131.8214
" />
<path d="M154.3850 131.7744
L154.3850 141.7514
" />
<path d="M154.3850 141.7514
L142.3949 141.7514
" />
<path d="M154.3899 138.4514
L142.3999 138.4514
" />
</g>
<g style="fill:none; 
stroke:#000000; stroke-width:0.1200; stroke-opacity:1; 
stroke-linecap:round; stroke-linejoin:round;">
<path d="M164.6272 113.3051
L164.6272 112.9978
" />
<path d="M165.3872 113.3051
L165.3872 112.9978
" />
<path d="M163.6072 113.2392
L163.6072 113.0236
" />
<path d="M164.3272 113.2392
L164.3272 113.0236
" />
</g>
<g style="fill:none; 
stroke:#000000; stroke-width:0.2540; stroke-opacity:1; 
stroke-linecap:round; stroke-linejoin:round;">
<path d="M154.4249 131.7814
L154.4249 141.7514
" />
<path d="M154.4907 131.7714
L156.0192 131.7714
" />
<path d="M157.4814 131.7814
L159.5584 131.7814
" />
<path d="M161.2914 131.8114
L163.3684 131.8114
" />
<path d="M164.8607 131.8214
L166.3892 131.8214
" />
<path d="M166.4249 131.7744
L166.4249 141.7514
" />
<path d="M166.4249 141.7514
L154.4349 141.7514
" />
<path d="M166.4299 138.4514
L154.4399 138.4514
" />
</g>
<g style="fill:none; 
stroke:#000000; stroke-width:0.1200; stroke-opacity:1; 
stroke-linecap:round; stroke-linejoin:round;">
<path d="M148.3343 126.2364
L147.8802 126.2364
" />
<path d="M148.3343 127.7064
L147.8802 127.7064
" />
<path d="M156.1872 114.1614
L156.2822 114.1614
" />
<path d="M156.1872 118.2814
L156.1872 114.1614
" />
<path d="M156.2822 118.2814
L156.1872 118.2814
" />
<path d="M161.2122 114.1614
L161.3072 114.1614
" />
<path d="M161.3072 114.1614
L161.3072 118.2814
" />
<path d="M161.3072 118.2814
L161.2122 118.2814
" />
<path style="fill:none; 
stroke:#000000; stroke-width:0.1200; stroke-opacity:1; 
stroke-linecap:round; stroke-linejoin:round;fill:none"
d="M 161.2172,113.6214
161.5472,113.3814
161.5472,113.8614
Z" /> 
<path style="fill:#000000; fill-opacity:1.0000; stroke:none;fill-rule:evenodd;"
d="M 161.5472,113.8614
161.2172,113.6214
161.5472,113.3814
Z" /> 
</g>
<g style="fill:none; 
stroke:#000000; stroke-width:0.1200; stroke-opacity:1; 
stroke-linecap:round; stroke-linejoin:round;">
<path d="M145.0897 113.9914
L145.1847 113.9914
" />
<path d="M145.0897 118.1114
L145.0897 113.9914
" />
<path d="M145.1847 118.1114
L145.0897 118.1114
" />
<path d="M150.1147 113.9914
L150.2097 113.9914
" />
<path d="M150.2097 113.9914
L150.2097 118.1114
" />
<path d="M150.2097 118.1114
L150.1147 118.1114
" />
<path style="fill:none; 
stroke:#000000; stroke-width:0.1200; stroke-opacity:1; 
stroke-linecap:round; stroke-linejoin:round;fill:none"
d="M 150.1197,113.4514
150.4497,113.2114
150.4497,113.6914
Z" /> 
<path style="fill:#000000; fill-opacity:1.0000; stroke:none;fill-rule:evenodd;"
d="M 150.4497,113.6914
150.1197,113.4514
150.4497,113.2114
Z" /> 
</g>
<g style="fill:none; 
stroke:#000000; stroke-width:0.1200; stroke-opacity:1; 
stroke-linecap:round; stroke-linejoin:round;">
<path d="M151.1772 117.8778
L151.1772 118.1851
" />
<path d="M151.9372 117.8778
L151.9372 118.1851
" />
<path d="M164.2922 115.0514
L164.2922 117.3364
" />
<path d="M164.2922 117.3364
L165.7622 117.3364
" />
<path d="M165.7622 117.3364
L165.7622 115.0514
" />
<path d="M154.5036 115.2014
L154.8109 115.2014
" />
<path d="M154.5036 115.9614
L154.8109 115.9614
" />
<path d="M143.0136 116.5514
L143.3209 116.5514
" />
<path d="M143.0136 117.3114
L143.3209 117.3114
" />
<path d="M143.0436 115.2014
L143.3509 115.2014
" />
<path d="M143.0436 115.9614
L143.3509 115.9614
" />
</g>
<g style="fill:none; 
stroke:#000000; stroke-width:0.1000; stroke-opacity:1; 
stroke-linecap:round; stroke-linejoin:round;">
<path d="M139.4972 99.8914 A2.5000 2.5000 0.0 0 0 136.9972 102.3914" />
<path d="M136.9972 137.9214
L136.9972 102.3914
" />
<path d="M136.9973 137.9214 A2.4999 2.4999 0.0 0 0 139.4972 140.4214" />
<path d="M166.4797 98.0100
L166.4797 99.8814
" />
<path d="M171.9373 98.0110 A2.7288 2.7288 0.0 1 0 166.4797 98.0100" />
<path d="M166.4797 99.8814
L139.4972 99.8914
" />
<path d="M169.4272 140.4214
L139.4972 140.4214
" />
<path d="M171.9272 102.3914
L171.9272 137.9214
" />
<path d="M169.4272 140.4214 A2.5000 2.5000 0.0 0 0 171.9272 137.9214" />
<path d="M171.9372 98.0110
L171.9272 102.3914
" />
</g>
<g style="fill:none; 
stroke:#000000; stroke-width:0.0500; stroke-opacity:1; 
stroke-linecap:round; stroke-linejoin:round;">
<circle cx="169.2085" cy="137.8414" r="1.2985" /> 
<circle cx="139.6772" cy="137.8414" r="1.2985" /> 
<circle cx="169.2085" cy="98.0100" r="1.2985" /> 
</g> 
</svg>
