<?xml version="1.0" standalone="no"?>
 <!DOCTYPE svg PUBLIC "-//W3C//DTD SVG 1.1//EN" 
 "http://www.w3.org/Graphics/SVG/1.1/DTD/svg11.dtd"> 
<svg
  xmlns:svg="http://www.w3.org/2000/svg"
  xmlns="http://www.w3.org/2000/svg"
  xmlns:xlink="http://www.w3.org/1999/xlink"
  xmlns:inkscape="http://www.inkscape.org/namespaces/inkscape"
  version="1.1"
  width="297.0022mm" height="210.0072mm" viewBox="0.0000 0.0000 297.0022 210.0072">
<title>SVG Image created as Kicad_T-C5-RS485-Shield-F_Silkscreen.svg date 2026-08-19T16:17:27 </title>
  <desc>Image generated by PCBNEW </desc>
<g style="fill:#000000; fill-opacity:1.0000;stroke:#000000; stroke-opacity:1.0000;
stroke-linecap:round; stroke-linejoin:round;"
 transform="translate(0 0) scale(1 1)">
</g>
<g style="fill:none; 
stroke:#000000; stroke-width:0.1500; stroke-opacity:1; 
stroke-linecap:round; stroke-linejoin:round;">
<text x="123.0289" y="141.6920"
textLength="10.6786" font-size="1.3333" lengthAdjust="spacingAndGlyphs"
text-anchor="middle" opacity="0" stroke-opacity="0">R 1.3214 mm</text>
<g class="stroked-text"><desc>R 1.3214 mm</desc>
<path d="M118.6242 141.6469
L118.2909 141.1707
" />
<path d="M118.0528 141.6469
L118.0528 140.6469
" />
<path d="M118.0528 140.6469
L118.4337 140.6469
" />
<path d="M118.4337 140.6469
L118.5289 140.6945
" />
<path d="M118.5289 140.6945
L118.5766 140.7421
" />
<path d="M118.5766 140.7421
L118.6242 140.8373
" />
<path d="M118.6242 140.8373
L118.6242 140.9802
" />
<path d="M118.6242 140.9802
L118.5766 141.0754
" />
<path d="M118.5766 141.0754
L118.5289 141.1231
" />
<path d="M118.5289 141.1231
L118.4337 141.1707
" />
<path d="M118.4337 141.1707
L118.0528 141.1707
" />
<path d="M120.3385 141.6469
L119.7670 141.6469
" />
<path d="M120.0528 141.6469
L120.0528 140.6469
" />
<path d="M120.0528 140.6469
L119.9575 140.7897
" />
<path d="M119.9575 140.7897
L119.8623 140.8850
" />
<path d="M119.8623 140.8850
L119.7670 140.9326
" />
<path d="M120.7670 141.5516
L120.8147 141.5992
" />
<path d="M120.8147 141.5992
L120.7670 141.6469
" />
<path d="M120.7670 141.6469
L120.7194 141.5992
" />
<path d="M120.7194 141.5992
L120.7670 141.5516
" />
<path d="M120.7670 141.5516
L120.7670 141.6469
" />
<path d="M121.1480 140.6469
L121.7670 140.6469
" />
<path d="M121.7670 140.6469
L121.4337 141.0278
" />
<path d="M121.4337 141.0278
L121.5766 141.0278
" />
<path d="M121.5766 141.0278
L121.6718 141.0754
" />
<path d="M121.6718 141.0754
L121.7194 141.1231
" />
<path d="M121.7194 141.1231
L121.7670 141.2183
" />
<path d="M121.7670 141.2183
L121.7670 141.4564
" />
<path d="M121.7670 141.4564
L121.7194 141.5516
" />
<path d="M121.7194 141.5516
L121.6718 141.5992
" />
<path d="M121.6718 141.5992
L121.5766 141.6469
" />
<path d="M121.5766 141.6469
L121.2909 141.6469
" />
<path d="M121.2909 141.6469
L121.1956 141.5992
" />
<path d="M121.1956 141.5992
L121.1480 141.5516
" />
<path d="M122.1480 140.7421
L122.1956 140.6945
" />
<path d="M122.1956 140.6945
L122.2909 140.6469
" />
<path d="M122.2909 140.6469
L122.5289 140.6469
" />
<path d="M122.5289 140.6469
L122.6242 140.6945
" />
<path d="M122.6242 140.6945
L122.6718 140.7421
" />
<path d="M122.6718 140.7421
L122.7194 140.8373
" />
<path d="M122.7194 140.8373
L122.7194 140.9326
" />
<path d="M122.7194 140.9326
L122.6718 141.0754
" />
<path d="M122.6718 141.0754
L122.1004 141.6469
" />
<path d="M122.1004 141.6469
L122.7194 141.6469
" />
<path d="M123.6718 141.6469
L123.1004 141.6469
" />
<path d="M123.3861 141.6469
L123.3861 140.6469
" />
<path d="M123.3861 140.6469
L123.2909 140.7897
" />
<path d="M123.2909 140.7897
L123.1956 140.8850
" />
<path d="M123.1956 140.8850
L123.1004 140.9326
" />
<path d="M124.5289 140.9802
L124.5289 141.6469
" />
<path d="M124.2909 140.5992
L124.0528 141.3135
" />
<path d="M124.0528 141.3135
L124.6718 141.3135
" />
<path d="M125.8147 141.6469
L125.8147 140.9802
" />
<path d="M125.8147 141.0754
L125.8623 141.0278
" />
<path d="M125.8623 141.0278
L125.9575 140.9802
" />
<path d="M125.9575 140.9802
L126.1004 140.9802
" />
<path d="M126.1004 140.9802
L126.1956 141.0278
" />
<path d="M126.1956 141.0278
L126.2432 141.1231
" />
<path d="M126.2432 141.1231
L126.2432 141.6469
" />
<path d="M126.2432 141.1231
L126.2909 141.0278
" />
<path d="M126.2909 141.0278
L126.3861 140.9802
" />
<path d="M126.3861 140.9802
L126.5289 140.9802
" />
<path d="M126.5289 140.9802
L126.6242 141.0278
" />
<path d="M126.6242 141.0278
L126.6718 141.1231
" />
<path d="M126.6718 141.1231
L126.6718 141.6469
" />
<path d="M127.1480 141.6469
L127.1480 140.9802
" />
<path d="M127.1480 141.0754
L127.1956 141.0278
" />
<path d="M127.1956 141.0278
L127.2909 140.9802
" />
<path d="M127.2909 140.9802
L127.4337 140.9802
" />
<path d="M127.4337 140.9802
L127.5289 141.0278
" />
<path d="M127.5289 141.0278
L127.5766 141.1231
" />
<path d="M127.5766 141.1231
L127.5766 141.6469
" />
<path d="M127.5766 141.1231
L127.6242 141.0278
" />
<path d="M127.6242 141.0278
L127.7194 140.9802
" />
<path d="M127.7194 140.9802
L127.8623 140.9802
" />
<path d="M127.8623 140.9802
L127.9575 141.0278
" />
<path d="M127.9575 141.0278
L128.0051 141.1231
" />
<path d="M128.0051 141.1231
L128.0051 141.6469
" />
</g><path d="M139.6900 136.6600
L139.6900 139.2000
" />
<path d="M140.9600 137.9300
L138.4200 137.9300
" />
<path d="M138.6700 138.7700
L135.7289 141.1920
" />
<path d="M135.7289 141.1920
L128.8682 141.1920
" />
<path d="M138.6700 138.7700
L138.1732 139.9388
" />
<path d="M138.6700 138.7700
L137.4276 139.0335
" />
</g>
<g style="fill:none; 
stroke:#000000; stroke-width:0.3000; stroke-opacity:1; 
stroke-linecap:round; stroke-linejoin:round;">
<g transform="rotate(-90.000000 177.8800 117.8879)">
<text x="177.8800" y="118.6379"
textLength="15.0286" font-size="2.0000" lengthAdjust="spacingAndGlyphs"
text-anchor="middle" opacity="0" stroke-opacity="0">44.9638 mm</text>
</g>
<g class="stroked-text"><desc>44.9638 mm</desc>
<path d="M177.5583 124.1022
L178.5583 124.1022
" />
<path d="M176.9869 124.4593
L178.0583 124.8164
" />
<path d="M178.0583 124.8164
L178.0583 123.8879
" />
<path d="M177.5583 122.6736
L178.5583 122.6736
" />
<path d="M176.9869 123.0307
L178.0583 123.3879
" />
<path d="M178.0583 123.3879
L178.0583 122.4593
" />
<path d="M178.4155 121.8879
L178.4869 121.8164
" />
<path d="M178.4869 121.8164
L178.5583 121.8879
" />
<path d="M178.5583 121.8879
L178.4869 121.9593
" />
<path d="M178.4869 121.9593
L178.4155 121.8879
" />
<path d="M178.4155 121.8879
L178.5583 121.8879
" />
<path d="M178.5583 121.1022
L178.5583 120.8164
" />
<path d="M178.5583 120.8164
L178.4869 120.6736
" />
<path d="M178.4869 120.6736
L178.4155 120.6022
" />
<path d="M178.4155 120.6022
L178.2012 120.4593
" />
<path d="M178.2012 120.4593
L177.9155 120.3879
" />
<path d="M177.9155 120.3879
L177.3440 120.3879
" />
<path d="M177.3440 120.3879
L177.2012 120.4593
" />
<path d="M177.2012 120.4593
L177.1298 120.5307
" />
<path d="M177.1298 120.5307
L177.0583 120.6736
" />
<path d="M177.0583 120.6736
L177.0583 120.9593
" />
<path d="M177.0583 120.9593
L177.1298 121.1022
" />
<path d="M177.1298 121.1022
L177.2012 121.1736
" />
<path d="M177.2012 121.1736
L177.3440 121.2450
" />
<path d="M177.3440 121.2450
L177.7012 121.2450
" />
<path d="M177.7012 121.2450
L177.8440 121.1736
" />
<path d="M177.8440 121.1736
L177.9155 121.1022
" />
<path d="M177.9155 121.1022
L177.9869 120.9593
" />
<path d="M177.9869 120.9593
L177.9869 120.6736
" />
<path d="M177.9869 120.6736
L177.9155 120.5307
" />
<path d="M177.9155 120.5307
L177.8440 120.4593
" />
<path d="M177.8440 120.4593
L177.7012 120.3879
" />
<path d="M177.0583 119.1022
L177.0583 119.3879
" />
<path d="M177.0583 119.3879
L177.1298 119.5307
" />
<path d="M177.1298 119.5307
L177.2012 119.6022
" />
<path d="M177.2012 119.6022
L177.4155 119.7450
" />
<path d="M177.4155 119.7450
L177.7012 119.8164
" />
<path d="M177.7012 119.8164
L178.2726 119.8164
" />
<path d="M178.2726 119.8164
L178.4155 119.7450
" />
<path d="M178.4155 119.7450
L178.4869 119.6736
" />
<path d="M178.4869 119.6736
L178.5583 119.5307
" />
<path d="M178.5583 119.5307
L178.5583 119.2450
" />
<path d="M178.5583 119.2450
L178.4869 119.1022
" />
<path d="M178.4869 119.1022
L178.4155 119.0307
" />
<path d="M178.4155 119.0307
L178.2726 118.9593
" />
<path d="M178.2726 118.9593
L177.9155 118.9593
" />
<path d="M177.9155 118.9593
L177.7726 119.0307
" />
<path d="M177.7726 119.0307
L177.7012 119.1022
" />
<path d="M177.7012 119.1022
L177.6298 119.2450
" />
<path d="M177.6298 119.2450
L177.6298 119.5307
" />
<path d="M177.6298 119.5307
L177.7012 119.6736
" />
<path d="M177.7012 119.6736
L177.7726 119.7450
" />
<path d="M177.7726 119.7450
L177.9155 119.8164
" />
<path d="M177.0583 118.4593
L177.0583 117.5307
" />
<path d="M177.0583 117.5307
L177.6298 118.0307
" />
<path d="M177.6298 118.0307
L177.6298 117.8164
" />
<path d="M177.6298 117.8164
L177.7012 117.6736
" />
<path d="M177.7012 117.6736
L177.7726 117.6022
" />
<path d="M177.7726 117.6022
L177.9155 117.5307
" />
<path d="M177.9155 117.5307
L178.2726 117.5307
" />
<path d="M178.2726 117.5307
L178.4155 117.6022
" />
<path d="M178.4155 117.6022
L178.4869 117.6736
" />
<path d="M178.4869 117.6736
L178.5583 117.8164
" />
<path d="M178.5583 117.8164
L178.5583 118.2450
" />
<path d="M178.5583 118.2450
L178.4869 118.3879
" />
<path d="M178.4869 118.3879
L178.4155 118.4593
" />
<path d="M177.7012 116.6736
L177.6298 116.8164
" />
<path d="M177.6298 116.8164
L177.5583 116.8879
" />
<path d="M177.5583 116.8879
L177.4155 116.9593
" />
<path d="M177.4155 116.9593
L177.3440 116.9593
" />
<path d="M177.3440 116.9593
L177.2012 116.8879
" />
<path d="M177.2012 116.8879
L177.1298 116.8164
" />
<path d="M177.1298 116.8164
L177.0583 116.6736
" />
<path d="M177.0583 116.6736
L177.0583 116.3879
" />
<path d="M177.0583 116.3879
L177.1298 116.2450
" />
<path d="M177.1298 116.2450
L177.2012 116.1736
" />
<path d="M177.2012 116.1736
L177.3440 116.1022
" />
<path d="M177.3440 116.1022
L177.4155 116.1022
" />
<path d="M177.4155 116.1022
L177.5583 116.1736
" />
<path d="M177.5583 116.1736
L177.6298 116.2450
" />
<path d="M177.6298 116.2450
L177.7012 116.3879
" />
<path d="M177.7012 116.3879
L177.7012 116.6736
" />
<path d="M177.7012 116.6736
L177.7726 116.8164
" />
<path d="M177.7726 116.8164
L177.8440 116.8879
" />
<path d="M177.8440 116.8879
L177.9869 116.9593
" />
<path d="M177.9869 116.9593
L178.2726 116.9593
" />
<path d="M178.2726 116.9593
L178.4155 116.8879
" />
<path d="M178.4155 116.8879
L178.4869 116.8164
" />
<path d="M178.4869 116.8164
L178.5583 116.6736
" />
<path d="M178.5583 116.6736
L178.5583 116.3879
" />
<path d="M178.5583 116.3879
L178.4869 116.2450
" />
<path d="M178.4869 116.2450
L178.4155 116.1736
" />
<path d="M178.4155 116.1736
L178.2726 116.1022
" />
<path d="M178.2726 116.1022
L177.9869 116.1022
" />
<path d="M177.9869 116.1022
L177.8440 116.1736
" />
<path d="M177.8440 116.1736
L177.7726 116.2450
" />
<path d="M177.7726 116.2450
L177.7012 116.3879
" />
<path d="M178.5583 114.3164
L177.5583 114.3164
" />
<path d="M177.7012 114.3164
L177.6298 114.2450
" />
<path d="M177.6298 114.2450
L177.5583 114.1022
" />
<path d="M177.5583 114.1022
L177.5583 113.8879
" />
<path d="M177.5583 113.8879
L177.6298 113.7450
" />
<path d="M177.6298 113.7450
L177.7726 113.6736
" />
<path d="M177.7726 113.6736
L178.5583 113.6736
" />
<path d="M177.7726 113.6736
L177.6298 113.6022
" />
<path d="M177.6298 113.6022
L177.5583 113.4593
" />
<path d="M177.5583 113.4593
L177.5583 113.2450
" />
<path d="M177.5583 113.2450
L177.6298 113.1022
" />
<path d="M177.6298 113.1022
L177.7726 113.0307
" />
<path d="M177.7726 113.0307
L178.5583 113.0307
" />
<path d="M178.5583 112.3164
L177.5583 112.3164
" />
<path d="M177.7012 112.3164
L177.6298 112.2450
" />
<path d="M177.6298 112.2450
L177.5583 112.1022
" />
<path d="M177.5583 112.1022
L177.5583 111.8879
" />
<path d="M177.5583 111.8879
L177.6298 111.7450
" />
<path d="M177.6298 111.7450
L177.7726 111.6736
" />
<path d="M177.7726 111.6736
L178.5583 111.6736
" />
<path d="M177.7726 111.6736
L177.6298 111.6022
" />
<path d="M177.6298 111.6022
L177.5583 111.4593
" />
<path d="M177.5583 111.4593
L177.5583 111.2450
" />
<path d="M177.5583 111.2450
L177.6298 111.1022
" />
<path d="M177.6298 111.1022
L177.7726 111.0307
" />
<path d="M177.7726 111.0307
L178.5583 111.0307
" />
</g></g>
<g style="fill:none; 
stroke:#000000; stroke-width:0.2000; stroke-opacity:1; 
stroke-linecap:round; stroke-linejoin:round;">
<path d="M169.7070 95.4060
L180.2664 95.4060
" />
<path d="M180.2664 140.3698
L170.3301 140.3698
" />
<path d="M179.6800 95.4060
L179.6800 140.3698
" />
<path d="M179.6800 95.4060
L180.2664 96.5325
" />
<path d="M179.6800 95.4060
L179.0936 96.5325
" />
<path d="M179.6800 140.3698
L179.0936 139.2433
" />
<path d="M179.6800 140.3698
L180.2664 139.2433
" />
</g>
<g style="fill:none; 
stroke:#000000; stroke-width:0.3000; stroke-opacity:1; 
stroke-linecap:round; stroke-linejoin:round;">
<text x="154.4150" y="90.8500"
textLength="15.0286" font-size="2.0000" lengthAdjust="spacingAndGlyphs"
text-anchor="middle" opacity="0" stroke-opacity="0">34.8700 mm</text>
<g class="stroked-text"><desc>34.8700 mm</desc>
<path d="M147.4150 89.2783
L148.3436 89.2783
" />
<path d="M148.3436 89.2783
L147.8436 89.8498
" />
<path d="M147.8436 89.8498
L148.0579 89.8498
" />
<path d="M148.0579 89.8498
L148.2007 89.9212
" />
<path d="M148.2007 89.9212
L148.2721 89.9926
" />
<path d="M148.2721 89.9926
L148.3436 90.1355
" />
<path d="M148.3436 90.1355
L148.3436 90.4926
" />
<path d="M148.3436 90.4926
L148.2721 90.6355
" />
<path d="M148.2721 90.6355
L148.2007 90.7069
" />
<path d="M148.2007 90.7069
L148.0579 90.7783
" />
<path d="M148.0579 90.7783
L147.6293 90.7783
" />
<path d="M147.6293 90.7783
L147.4864 90.7069
" />
<path d="M147.4864 90.7069
L147.4150 90.6355
" />
<path d="M149.6293 89.7783
L149.6293 90.7783
" />
<path d="M149.2721 89.2069
L148.9150 90.2783
" />
<path d="M148.9150 90.2783
L149.8436 90.2783
" />
<path d="M150.4150 90.6355
L150.4864 90.7069
" />
<path d="M150.4864 90.7069
L150.4150 90.7783
" />
<path d="M150.4150 90.7783
L150.3436 90.7069
" />
<path d="M150.3436 90.7069
L150.4150 90.6355
" />
<path d="M150.4150 90.6355
L150.4150 90.7783
" />
<path d="M151.3436 89.9212
L151.2007 89.8498
" />
<path d="M151.2007 89.8498
L151.1293 89.7783
" />
<path d="M151.1293 89.7783
L151.0579 89.6355
" />
<path d="M151.0579 89.6355
L151.0579 89.5640
" />
<path d="M151.0579 89.5640
L151.1293 89.4212
" />
<path d="M151.1293 89.4212
L151.2007 89.3498
" />
<path d="M151.2007 89.3498
L151.3436 89.2783
" />
<path d="M151.3436 89.2783
L151.6293 89.2783
" />
<path d="M151.6293 89.2783
L151.7721 89.3498
" />
<path d="M151.7721 89.3498
L151.8436 89.4212
" />
<path d="M151.8436 89.4212
L151.9150 89.5640
" />
<path d="M151.9150 89.5640
L151.9150 89.6355
" />
<path d="M151.9150 89.6355
L151.8436 89.7783
" />
<path d="M151.8436 89.7783
L151.7721 89.8498
" />
<path d="M151.7721 89.8498
L151.6293 89.9212
" />
<path d="M151.6293 89.9212
L151.3436 89.9212
" />
<path d="M151.3436 89.9212
L151.2007 89.9926
" />
<path d="M151.2007 89.9926
L151.1293 90.0640
" />
<path d="M151.1293 90.0640
L151.0579 90.2069
" />
<path d="M151.0579 90.2069
L151.0579 90.4926
" />
<path d="M151.0579 90.4926
L151.1293 90.6355
" />
<path d="M151.1293 90.6355
L151.2007 90.7069
" />
<path d="M151.2007 90.7069
L151.3436 90.7783
" />
<path d="M151.3436 90.7783
L151.6293 90.7783
" />
<path d="M151.6293 90.7783
L151.7721 90.7069
" />
<path d="M151.7721 90.7069
L151.8436 90.6355
" />
<path d="M151.8436 90.6355
L151.9150 90.4926
" />
<path d="M151.9150 90.4926
L151.9150 90.2069
" />
<path d="M151.9150 90.2069
L151.8436 90.0640
" />
<path d="M151.8436 90.0640
L151.7721 89.9926
" />
<path d="M151.7721 89.9926
L151.6293 89.9212
" />
<path d="M152.4150 89.2783
L153.4150 89.2783
" />
<path d="M153.4150 89.2783
L152.7721 90.7783
" />
<path d="M154.2721 89.2783
L154.4150 89.2783
" />
<path d="M154.4150 89.2783
L154.5579 89.3498
" />
<path d="M154.5579 89.3498
L154.6293 89.4212
" />
<path d="M154.6293 89.4212
L154.7007 89.5640
" />
<path d="M154.7007 89.5640
L154.7721 89.8498
" />
<path d="M154.7721 89.8498
L154.7721 90.2069
" />
<path d="M154.7721 90.2069
L154.7007 90.4926
" />
<path d="M154.7007 90.4926
L154.6293 90.6355
" />
<path d="M154.6293 90.6355
L154.5579 90.7069
" />
<path d="M154.5579 90.7069
L154.4150 90.7783
" />
<path d="M154.4150 90.7783
L154.2721 90.7783
" />
<path d="M154.2721 90.7783
L154.1293 90.7069
" />
<path d="M154.1293 90.7069
L154.0579 90.6355
" />
<path d="M154.0579 90.6355
L153.9864 90.4926
" />
<path d="M153.9864 90.4926
L153.9150 90.2069
" />
<path d="M153.9150 90.2069
L153.9150 89.8498
" />
<path d="M153.9150 89.8498
L153.9864 89.5640
" />
<path d="M153.9864 89.5640
L154.0579 89.4212
" />
<path d="M154.0579 89.4212
L154.1293 89.3498
" />
<path d="M154.1293 89.3498
L154.2721 89.2783
" />
<path d="M155.7007 89.2783
L155.8436 89.2783
" />
<path d="M155.8436 89.2783
L155.9864 89.3498
" />
<path d="M155.9864 89.3498
L156.0579 89.4212
" />
<path d="M156.0579 89.4212
L156.1293 89.5640
" />
<path d="M156.1293 89.5640
L156.2007 89.8498
" />
<path d="M156.2007 89.8498
L156.2007 90.2069
" />
<path d="M156.2007 90.2069
L156.1293 90.4926
" />
<path d="M156.1293 90.4926
L156.0579 90.6355
" />
<path d="M156.0579 90.6355
L155.9864 90.7069
" />
<path d="M155.9864 90.7069
L155.8436 90.7783
" />
<path d="M155.8436 90.7783
L155.7007 90.7783
" />
<path d="M155.7007 90.7783
L155.5579 90.7069
" />
<path d="M155.5579 90.7069
L155.4864 90.6355
" />
<path d="M155.4864 90.6355
L155.4150 90.4926
" />
<path d="M155.4150 90.4926
L155.3436 90.2069
" />
<path d="M155.3436 90.2069
L155.3436 89.8498
" />
<path d="M155.3436 89.8498
L155.4150 89.5640
" />
<path d="M155.4150 89.5640
L155.4864 89.4212
" />
<path d="M155.4864 89.4212
L155.5579 89.3498
" />
<path d="M155.5579 89.3498
L155.7007 89.2783
" />
<path d="M157.9864 90.7783
L157.9864 89.7783
" />
<path d="M157.9864 89.9212
L158.0579 89.8498
" />
<path d="M158.0579 89.8498
L158.2007 89.7783
" />
<path d="M158.2007 89.7783
L158.4150 89.7783
" />
<path d="M158.4150 89.7783
L158.5579 89.8498
" />
<path d="M158.5579 89.8498
L158.6293 89.9926
" />
<path d="M158.6293 89.9926
L158.6293 90.7783
" />
<path d="M158.6293 89.9926
L158.7007 89.8498
" />
<path d="M158.7007 89.8498
L158.8436 89.7783
" />
<path d="M158.8436 89.7783
L159.0579 89.7783
" />
<path d="M159.0579 89.7783
L159.2007 89.8498
" />
<path d="M159.2007 89.8498
L159.2721 89.9926
" />
<path d="M159.2721 89.9926
L159.2721 90.7783
" />
<path d="M159.9864 90.7783
L159.9864 89.7783
" />
<path d="M159.9864 89.9212
L160.0579 89.8498
" />
<path d="M160.0579 89.8498
L160.2007 89.7783
" />
<path d="M160.2007 89.7783
L160.4150 89.7783
" />
<path d="M160.4150 89.7783
L160.5579 89.8498
" />
<path d="M160.5579 89.8498
L160.6293 89.9926
" />
<path d="M160.6293 89.9926
L160.6293 90.7783
" />
<path d="M160.6293 89.9926
L160.7007 89.8498
" />
<path d="M160.7007 89.8498
L160.8436 89.7783
" />
<path d="M160.8436 89.7783
L161.0579 89.7783
" />
<path d="M161.0579 89.7783
L161.2007 89.8498
" />
<path d="M161.2007 89.8498
L161.2721 89.9926
" />
<path d="M161.2721 89.9926
L161.2721 90.7783
" />
</g></g>
<g style="fill:none; 
stroke:#000000; stroke-width:0.2000; stroke-opacity:1; 
stroke-linecap:round; stroke-linejoin:round;">
<path d="M136.9800 102.2200
L136.9800 91.3136
" />
<path d="M171.8500 91.3136
L171.8500 102.2400
" />
<path d="M136.9800 91.9000
L171.8500 91.9000
" />
<path d="M136.9800 91.9000
L138.1065 91.3136
" />
<path d="M136.9800 91.9000
L138.1065 92.4864
" />
<path d="M171.8500 91.9000
L170.7235 92.4864
" />
<path d="M171.8500 91.9000
L170.7235 91.3136
" />
<path style="fill:#000000; fill-opacity:1.0000; 
stroke:#000000; stroke-width:0.1500; stroke-opacity:1; 
stroke-linecap:round; stroke-linejoin:round;fill-rule:evenodd;"
d="M 142.3722,129.9614
144.0822,129.9614
144.0822,131.6064
142.3722,131.6064
Z" /> 
<path style="fill:none; 
stroke:#000000; stroke-width:0.1500; stroke-opacity:1; 
stroke-linecap:round; stroke-linejoin:round;fill:none"
d="M 142.4345,129.9014
166.5272,129.9014
166.5272,131.7364
142.4345,131.7364
Z" /> 
<path style="fill:#000000; fill-opacity:1.0000; 
stroke:#000000; stroke-width:0.1500; stroke-opacity:1; 
stroke-linecap:round; stroke-linejoin:round;fill-rule:evenodd;"
d="M 145.9272,129.9314
147.5872,129.9314
147.5872,131.6664
145.9272,131.6664
Z" /> 
<path style="fill:#000000; fill-opacity:1.0000; 
stroke:#000000; stroke-width:0.1500; stroke-opacity:1; 
stroke-linecap:round; stroke-linejoin:round;fill-rule:evenodd;"
d="M 149.0372,130.0114
151.5972,130.0114
151.5972,131.6264
149.0372,131.6264
Z" /> 
<path style="fill:#000000; fill-opacity:1.0000; 
stroke:#000000; stroke-width:0.1500; stroke-opacity:1; 
stroke-linecap:round; stroke-linejoin:round;fill-rule:evenodd;"
d="M 153.2272,129.9514
156.1672,129.9514
156.1672,131.6164
153.2272,131.6164
Z" /> 
<path style="fill:#000000; fill-opacity:1.0000; 
stroke:#000000; stroke-width:0.1500; stroke-opacity:1; 
stroke-linecap:round; stroke-linejoin:round;fill-rule:evenodd;"
d="M 158.0072,129.9614
159.6172,129.9614
159.6172,131.5964
158.0072,131.5964
Z" /> 
<path style="fill:#000000; fill-opacity:1.0000; 
stroke:#000000; stroke-width:0.1500; stroke-opacity:1; 
stroke-linecap:round; stroke-linejoin:round;fill-rule:evenodd;"
d="M 161.2272,129.9414
163.7372,129.9414
163.7372,131.6264
161.2272,131.6264
Z" /> 
<path style="fill:#000000; fill-opacity:1.0000; 
stroke:#000000; stroke-width:0.1500; stroke-opacity:1; 
stroke-linecap:round; stroke-linejoin:round;fill-rule:evenodd;"
d="M 165.3172,129.9414
166.4222,129.9414
166.4222,131.6414
165.3172,131.6414
Z" /> 
</g>
<g style="fill:none; 
stroke:#000000; stroke-width:0.1500; stroke-opacity:1; 
stroke-linecap:round; stroke-linejoin:round;">
<g transform="rotate(-90.000000 138.7300 104.6700)">
<text x="138.7300" y="104.6700"
textLength="1.2024" font-size="1.3333" lengthAdjust="spacingAndGlyphs"
text-anchor="start" opacity="0" stroke-opacity="0">2</text>
</g>
<g class="stroked-text"><desc>2</desc>
<path d="M137.6951 104.3808
L137.6474 104.3332
" />
<path d="M137.6474 104.3332
L137.5998 104.2380
" />
<path d="M137.5998 104.2380
L137.5998 103.9999
" />
<path d="M137.5998 103.9999
L137.6474 103.9046
" />
<path d="M137.6474 103.9046
L137.6951 103.8570
" />
<path d="M137.6951 103.8570
L137.7903 103.8094
" />
<path d="M137.7903 103.8094
L137.8855 103.8094
" />
<path d="M137.8855 103.8094
L138.0284 103.8570
" />
<path d="M138.0284 103.8570
L138.5998 104.4285
" />
<path d="M138.5998 104.4285
L138.5998 103.8094
" />
</g><g transform="rotate(-90.000000 138.7300 109.0500)">
<text x="138.7300" y="109.0500"
textLength="1.2024" font-size="1.3333" lengthAdjust="spacingAndGlyphs"
text-anchor="start" opacity="0" stroke-opacity="0">1</text>
</g>
<g class="stroked-text"><desc>1</desc>
<path d="M138.5998 108.1894
L138.5998 108.7608
" />
<path d="M138.5998 108.4751
L137.5998 108.4751
" />
<path d="M137.5998 108.4751
L137.7427 108.5704
" />
<path d="M137.7427 108.5704
L137.8379 108.6656
" />
<path d="M137.8379 108.6656
L137.8855 108.7608
" />
</g><path style="fill:#000000; fill-opacity:1.0000; stroke:none;fill-rule:evenodd;"
d="M 145.1475,130.8775
144.8219,130.8775
144.9732,130.4203
144.9983,130.4203
Z" /> 
<path style="fill:#000000; fill-opacity:1.0000; stroke:none;fill-rule:evenodd;"
d="M 145.9693,131.6860
144.0042,131.6860
144.0042,131.5193
144.1709,131.5193
144.6077,131.5193
144.7107,131.2116
145.2566,131.2116
145.3575,131.5193
145.8026,131.5193
145.2713,130.0627
144.7064,130.0627
144.4069,130.8775
144.1709,131.5193
144.0042,131.5193
144.0042,129.8960
145.9693,129.8960
Z" /> 
<path style="fill:#000000; fill-opacity:1.0000; stroke:none;fill-rule:evenodd;"
d="M 148.3333,130.9365
148.3732,130.9467
148.4013,130.9600
148.4233,130.9788
148.4375,131.0028
148.4453,131.0312
148.4482,131.0678
148.4453,131.1044
148.4375,131.1319
148.4233,131.1547
148.4013,131.1725
148.3731,131.1845
148.3322,131.1928
148.2247,131.1981
148.1141,131.1981
148.1141,130.9290
148.2247,130.9290
Z" /> 
<path style="fill:#000000; fill-opacity:1.0000; stroke:none;fill-rule:evenodd;"
d="M 148.3014,130.4014
148.3614,130.4161
148.3889,130.4351
148.4064,130.4664
148.4131,130.5150
148.4063,130.5665
148.3887,130.5994
148.3614,130.6192
148.3014,130.6346
148.1920,130.6413
148.1141,130.6413
148.1141,130.3951
148.1920,130.3951
Z" /> 
<path style="fill:#000000; fill-opacity:1.0000; stroke:none;fill-rule:evenodd;"
d="M 149.0369,131.6931
147.5312,131.6931
147.5312,130.6413
147.6979,130.6413
147.6979,131.1981
147.6979,131.5264
148.2894,131.5264
148.4525,131.5183
148.5724,131.4969
148.6769,131.4595
148.7513,131.4127
148.8079,131.3517
148.8440,131.2791
148.8634,131.1971
148.8703,131.1012
148.8616,131.0066
148.8381,130.9339
148.8016,130.8780
148.7520,130.8316
148.6917,130.7937
148.6190,130.7643
148.6190,130.7559
148.6943,130.7271
148.7475,130.6915
148.7835,130.6499
148.8080,130.5995
148.8236,130.5383
148.8292,130.4639
148.8220,130.3688
148.8020,130.2907
148.7650,130.2227
148.7075,130.1667
148.6327,130.1250
148.5270,130.0921
148.4064,130.0738
148.2416,130.0668
147.6979,130.0668
147.6979,130.6413
147.5312,130.6413
147.5312,129.9001
149.0369,129.9001
Z" /> 
<path style="fill:#000000; fill-opacity:1.0000; stroke:none;fill-rule:evenodd;"
d="M 153.1963,131.6965
151.6202,131.6965
151.6202,130.7795
151.7869,130.7795
151.7933,130.9325
151.8108,131.0560
151.8373,131.1547
151.8775,131.2481
151.9263,131.3236
151.9834,131.3839
152.0508,131.4328
152.1280,131.4710
152.2168,131.4984
152.3597,131.5215
152.5312,131.5299
152.6679,131.5246
152.8057,131.5099
152.9297,131.4879
153.0296,131.4628
153.0296,130.6213
152.4297,130.6213
152.4297,130.9671
152.6427,130.9671
152.6427,131.1819
152.6062,131.1840
152.5508,131.1840
152.4595,131.1784
152.3951,131.1640
152.3419,131.1367
152.3032,131.0965
152.2772,131.0440
152.2604,130.9712
152.2528,130.8887
152.2500,130.7793
152.2543,130.6739
152.2657,130.5938
152.2878,130.5231
152.3192,130.4705
152.3624,130.4299
152.4179,130.4020
152.4831,130.3867
152.5713,130.3809
152.6564,130.3845
152.7507,130.3958
152.8448,130.4145
152.9344,130.4405
152.9344,130.0774
152.8546,130.0585
152.7547,130.0439
152.6444,130.0334
152.5351,130.0292
152.3676,130.0392
152.2240,130.0671
152.1348,130.0986
152.0567,130.1407
151.9886,130.1933
151.9304,130.2566
151.8806,130.3333
151.8394,130.4255
151.8115,130.5229
151.7934,130.6398
151.7869,130.7795
151.6202,130.7795
151.6202,129.8626
153.1963,129.8626
Z" /> 
<path style="fill:#000000; fill-opacity:1.0000; stroke:none;fill-rule:evenodd;"
d="M 157.1575,130.8775
156.8319,130.8775
156.9832,130.4203
157.0083,130.4203
Z" /> 
<path style="fill:#000000; fill-opacity:1.0000; stroke:none;fill-rule:evenodd;"
d="M 157.9793,131.6860
156.0142,131.6860
156.0142,131.5193
156.1809,131.5193
156.6177,131.5193
156.7207,131.2116
157.2666,131.2116
157.3675,131.5193
157.8126,131.5193
157.2813,130.0627
156.7164,130.0627
156.4169,130.8775
156.1809,131.5193
156.0142,131.5193
156.0142,129.8960
157.9793,129.8960
Z" /> 
<path style="fill:#000000; fill-opacity:1.0000; stroke:none;fill-rule:evenodd;"
d="M 160.4733,130.9465
160.5132,130.9567
160.5413,130.9700
160.5633,130.9888
160.5775,131.0128
160.5853,131.0412
160.5882,131.0778
160.5853,131.1144
160.5775,131.1419
160.5633,131.1647
160.5413,131.1825
160.5131,131.1945
160.4722,131.2028
160.3647,131.2081
160.2541,131.2081
160.2541,130.9390
160.3647,130.9390
Z" /> 
<path style="fill:#000000; fill-opacity:1.0000; stroke:none;fill-rule:evenodd;"
d="M 160.4414,130.4114
160.5014,130.4261
160.5289,130.4451
160.5464,130.4764
160.5531,130.5250
160.5463,130.5765
160.5287,130.6094
160.5014,130.6292
160.4414,130.6446
160.3320,130.6513
160.2541,130.6513
160.2541,130.4051
160.3320,130.4051
Z" /> 
<path style="fill:#000000; fill-opacity:1.0000; stroke:none;fill-rule:evenodd;"
d="M 161.1769,131.7031
159.6712,131.7031
159.6712,130.6513
159.8379,130.6513
159.8379,131.2081
159.8379,131.5364
160.4294,131.5364
160.5925,131.5283
160.7124,131.5069
160.8169,131.4695
160.8913,131.4227
160.9479,131.3617
160.9840,131.2891
161.0034,131.2071
161.0103,131.1112
161.0016,131.0166
160.9781,130.9439
160.9416,130.8880
160.8920,130.8416
160.8317,130.8037
160.7590,130.7743
160.7590,130.7659
160.8343,130.7371
160.8875,130.7015
160.9235,130.6599
160.9480,130.6095
160.9636,130.5483
160.9692,130.4739
160.9620,130.3788
160.9420,130.3007
160.9050,130.2327
160.8475,130.1767
160.7727,130.1350
160.6670,130.1021
160.5464,130.0838
160.3816,130.0768
159.8379,130.0768
159.8379,130.6513
159.6712,130.6513
159.6712,129.9101
161.1769,129.9101
Z" /> 
<path style="fill:#000000; fill-opacity:1.0000; stroke:none;fill-rule:evenodd;"
d="M 165.2763,131.6965
163.7002,131.6965
163.7002,130.7795
163.8669,130.7795
163.8733,130.9325
163.8908,131.0560
163.9173,131.1547
163.9575,131.2481
164.0063,131.3236
164.0634,131.3839
164.1308,131.4328
164.2080,131.4710
164.2968,131.4984
164.4397,131.5215
164.6112,131.5299
164.7479,131.5246
164.8857,131.5099
165.0097,131.4879
165.1096,131.4628
165.1096,130.6213
164.5097,130.6213
164.5097,130.9671
164.7227,130.9671
164.7227,131.1819
164.6862,131.1840
164.6308,131.1840
164.5395,131.1784
164.4751,131.1640
164.4219,131.1367
164.3832,131.0965
164.3572,131.0440
164.3404,130.9712
164.3328,130.8887
164.3300,130.7793
164.3343,130.6739
164.3457,130.5938
164.3678,130.5231
164.3992,130.4705
164.4424,130.4299
164.4979,130.4020
164.5631,130.3867
164.6513,130.3809
164.7364,130.3845
164.8307,130.3958
164.9248,130.4145
165.0144,130.4405
165.0144,130.0774
164.9346,130.0585
164.8347,130.0439
164.7244,130.0334
164.6151,130.0292
164.4476,130.0392
164.3040,130.0671
164.2148,130.0986
164.1367,130.1407
164.0686,130.1933
164.0104,130.2566
163.9606,130.3333
163.9194,130.4255
163.8915,130.5229
163.8734,130.6398
163.8669,130.7795
163.7002,130.7795
163.7002,129.8626
165.2763,129.8626
Z" /> 
</g>
<g style="fill:none; 
stroke:#000000; stroke-width:0.1200; stroke-opacity:1; 
stroke-linecap:round; stroke-linejoin:round;">
<path d="M161.2097 112.7378
L161.2097 113.0451
" />
<path d="M161.9697 112.7378
L161.9697 113.0451
" />
<path d="M166.5522 114.1864
L166.5522 116.4714
" />
<path d="M168.0222 114.1864
L166.5522 114.1864
" />
<path d="M168.0222 116.4714
L168.0222 114.1864
" />
<path d="M139.6172 126.6714
L139.6172 129.9714
" />
<path d="M139.6172 126.6714
L145.1272 126.6714
" />
<path d="M139.6172 129.9714
L145.1272 129.9714
" />
<path d="M159.6722 115.5864
L159.7672 115.5864
" />
<path d="M159.6722 119.7064
L159.6722 115.5864
" />
<path d="M159.7672 119.7064
L159.6722 119.7064
" />
<path d="M164.6972 115.5864
L164.7922 115.5864
" />
<path d="M164.7922 115.5864
L164.7922 119.7064
" />
<path d="M164.7922 119.7064
L164.6972 119.7064
" />
<path style="fill:none; 
stroke:#000000; stroke-width:0.1200; stroke-opacity:1; 
stroke-linecap:round; stroke-linejoin:round;fill:none"
d="M 164.7022,115.0464
165.0322,114.8064
165.0322,115.2864
Z" /> 
<path style="fill:#000000; fill-opacity:1.0000; stroke:none;fill-rule:evenodd;"
d="M 165.0322,115.2864
164.7022,115.0464
165.0322,114.8064
Z" /> 
</g>
<g style="fill:none; 
stroke:#000000; stroke-width:0.1200; stroke-opacity:1; 
stroke-linecap:round; stroke-linejoin:round;">
<path d="M151.6372 120.2592
L151.6372 120.0436
" />
<path d="M152.3572 120.2592
L152.3572 120.0436
" />
<path d="M154.6522 115.9214
L154.6522 116.4914
" />
<path d="M154.6522 115.9214
L157.4122 115.9214
" />
<path d="M154.6522 116.4914
L153.1822 116.4914
" />
<path d="M154.6522 118.1114
L154.6522 121.2214
" />
<path d="M154.6522 121.2214
L157.4122 121.2214
" />
<path d="M157.4122 116.4914
L157.4122 119.0314
" />
<path d="M157.4122 120.6514
L157.4122 121.2214
" />
<path d="M163.7997 112.7378
L163.7997 113.0451
" />
<path d="M164.5597 112.7378
L164.5597 113.0451
" />
<path d="M141.9072 123.4151
L141.9072 123.1078
" />
<path d="M142.6672 123.4151
L142.6672 123.1078
" />
<path d="M150.5972 120.2592
L150.5972 120.0436
" />
<path d="M151.3172 120.2592
L151.3172 120.0436
" />
<path d="M165.9497 120.3292
L165.9497 120.1136
" />
<path d="M166.6697 120.3292
L166.6697 120.1136
" />
<path d="M144.1997 115.5864
L144.2947 115.5864
" />
<path d="M144.1997 119.7064
L144.1997 115.5864
" />
<path d="M144.2947 119.7064
L144.1997 119.7064
" />
<path d="M149.2247 115.5864
L149.3197 115.5864
" />
<path d="M149.3197 115.5864
L149.3197 119.7064
" />
<path d="M149.3197 119.7064
L149.2247 119.7064
" />
<path style="fill:none; 
stroke:#000000; stroke-width:0.1200; stroke-opacity:1; 
stroke-linecap:round; stroke-linejoin:round;fill:none"
d="M 149.2297,115.0464
149.5597,114.8064
149.5597,115.2864
Z" /> 
<path style="fill:#000000; fill-opacity:1.0000; stroke:none;fill-rule:evenodd;"
d="M 149.5597,115.2864
149.2297,115.0464
149.5597,114.8064
Z" /> 
</g>
<g style="fill:none; 
stroke:#000000; stroke-width:0.1200; stroke-opacity:1; 
stroke-linecap:round; stroke-linejoin:round;">
<path d="M146.9997 126.6714
L146.9997 129.9714
" />
<path d="M146.9997 126.6714
L152.5097 126.6714
" />
<path d="M146.9997 129.9714
L152.5097 129.9714
" />
<path d="M139.1872 103.5664
L139.7572 103.5664
" />
<path d="M139.1872 108.8664
L139.1872 103.5664
" />
<path d="M139.1872 108.8664
L139.7572 108.8664
" />
<path d="M139.7572 110.2564
L139.7572 108.8664
" />
<path d="M141.3772 103.5664
L142.2972 103.5664
" />
<path d="M141.3772 108.8664
L142.2972 108.8664
" />
<path d="M143.9172 103.5664
L144.8372 103.5664
" />
<path d="M143.9172 108.8664
L144.8372 108.8664
" />
<path d="M146.4572 103.5664
L147.3772 103.5664
" />
<path d="M146.4572 108.8664
L147.3772 108.8664
" />
<path d="M148.9972 103.5664
L149.9172 103.5664
" />
<path d="M148.9972 108.8664
L149.9172 108.8664
" />
<path d="M151.5372 103.5664
L152.4572 103.5664
" />
<path d="M151.5372 108.8664
L152.4572 108.8664
" />
<path d="M154.0772 103.5664
L154.9972 103.5664
" />
<path d="M154.0772 108.8664
L154.9972 108.8664
" />
<path d="M156.6172 103.5664
L157.5372 103.5664
" />
<path d="M156.6172 108.8664
L157.5372 108.8664
" />
<path d="M159.1572 103.5664
L160.0772 103.5664
" />
<path d="M159.1572 108.8664
L160.0772 108.8664
" />
<path d="M161.6972 103.5664
L162.6172 103.5664
" />
<path d="M161.6972 108.8664
L162.6172 108.8664
" />
<path d="M164.2372 103.5664
L165.1572 103.5664
" />
<path d="M164.2372 108.8664
L165.1572 108.8664
" />
<path d="M166.7772 103.5664
L167.6972 103.5664
" />
<path d="M166.7772 108.8664
L167.6972 108.8664
" />
<path d="M169.3172 103.5664
L169.8872 103.5664
" />
<path d="M169.3172 108.8664
L169.8872 108.8664
" />
<path d="M169.8872 108.8664
L169.8872 103.5664
" />
<path d="M158.5922 123.5660
L158.5922 123.1118
" />
<path d="M160.0622 123.5660
L160.0622 123.1118
" />
<path d="M164.4572 123.1078
L164.4572 123.4151
" />
<path d="M165.2172 123.1078
L165.2172 123.4151
" />
<path d="M139.2072 115.9214
L139.2072 116.4914
" />
<path d="M139.2072 115.9214
L141.9672 115.9214
" />
<path d="M139.2072 116.4914
L137.7372 116.4914
" />
<path d="M139.2072 118.1114
L139.2072 121.2214
" />
<path d="M139.2072 121.2214
L141.9672 121.2214
" />
<path d="M141.9672 116.4914
L141.9672 119.0314
" />
<path d="M141.9672 120.6514
L141.9672 121.2214
" />
<path d="M145.0922 123.1118
L145.0922 123.5660
" />
<path d="M146.5622 123.1118
L146.5622 123.5660
" />
<path d="M166.9572 118.0978
L166.9572 118.4051
" />
<path d="M167.7172 118.0978
L167.7172 118.4051
" />
<path d="M162.4922 123.1118
L162.4922 123.5660
" />
<path d="M163.9622 123.1118
L163.9622 123.5660
" />
</g>
<g style="fill:none; 
stroke:#000000; stroke-width:0.2540; stroke-opacity:1; 
stroke-linecap:round; stroke-linejoin:round;">
<path d="M142.3850 131.7814
L142.3850 141.7514
" />
<path d="M142.4507 131.7714
L143.9792 131.7714
" />
<path d="M145.4415 131.7814
L147.5185 131.7814
" />
<path d="M149.2515 131.8114
L151.3285 131.8114
" />
<path d="M152.8207 131.8214
L154.3492 131.8214
" />
<path d="M154.3850 131.7744
L154.3850 141.7514
" />
<path d="M154.3850 141.7514
L142.3949 141.7514
" />
<path d="M154.3899 138.4514
L142.3999 138.4514
" />
</g>
<g style="fill:none; 
stroke:#000000; stroke-width:0.1200; stroke-opacity:1; 
stroke-linecap:round; stroke-linejoin:round;">
<path d="M166.9697 120.3292
L166.9697 120.1136
" />
<path d="M167.6897 120.3292
L167.6897 120.1136
" />
<path d="M162.2797 126.5714
L162.2797 129.8714
" />
<path d="M162.2797 126.5714
L167.7897 126.5714
" />
<path d="M162.2797 129.8714
L167.7897 129.8714
" />
</g>
<g style="fill:none; 
stroke:#000000; stroke-width:0.2540; stroke-opacity:1; 
stroke-linecap:round; stroke-linejoin:round;">
<path d="M154.4249 131.7814
L154.4249 141.7514
" />
<path d="M154.4907 131.7714
L156.0192 131.7714
" />
<path d="M157.4814 131.7814
L159.5584 131.7814
" />
<path d="M161.2914 131.8114
L163.3684 131.8114
" />
<path d="M164.8607 131.8214
L166.3892 131.8214
" />
<path d="M166.4249 131.7744
L166.4249 141.7514
" />
<path d="M166.4249 141.7514
L154.4349 141.7514
" />
<path d="M166.4299 138.4514
L154.4399 138.4514
" />
</g>
<g style="fill:none; 
stroke:#000000; stroke-width:0.1200; stroke-opacity:1; 
stroke-linecap:round; stroke-linejoin:round;">
<path d="M149.0172 123.1078
L149.0172 123.4151
" />
<path d="M149.7772 123.1078
L149.7772 123.4151
" />
<path d="M143.1322 123.5660
L143.1322 123.1118
" />
<path d="M144.6022 123.5660
L144.6022 123.1118
" />
<path d="M160.5422 123.1118
L160.5422 123.5660
" />
<path d="M162.0122 123.1118
L162.0122 123.5660
" />
<path d="M157.3472 123.4151
L157.3472 123.1078
" />
<path d="M158.1072 123.4151
L158.1072 123.1078
" />
<path d="M145.7147 112.6328
L145.7147 112.9401
" />
<path d="M146.4747 112.6328
L146.4747 112.9401
" />
<path d="M159.9497 112.7378
L159.9497 113.0451
" />
<path d="M160.7097 112.7378
L160.7097 113.0451
" />
<path d="M155.0872 126.5714
L155.0872 129.8714
" />
<path d="M155.0872 126.5714
L160.5972 126.5714
" />
<path d="M155.0872 129.8714
L160.5972 129.8714
" />
<path d="M148.1947 112.6328
L148.1947 112.9401
" />
<path d="M148.9547 112.6328
L148.9547 112.9401
" />
<path d="M147.0622 123.1118
L147.0622 123.5660
" />
<path d="M148.5322 123.1118
L148.5322 123.5660
" />
<path d="M144.4847 112.6328
L144.4847 112.9401
" />
<path d="M145.2447 112.6328
L145.2447 112.9401
" />
</g>
<g style="fill:none; 
stroke:#000000; stroke-width:0.1000; stroke-opacity:1; 
stroke-linecap:round; stroke-linejoin:round;">
<path d="M139.4972 99.8914 A2.5000 2.5000 0.0 0 0 136.9972 102.3914" />
<path d="M136.9972 137.9214
L136.9972 102.3914
" />
<path d="M136.9973 137.9214 A2.4999 2.4999 0.0 0 0 139.4972 140.4214" />
<path d="M166.4797 98.0100
L166.4797 99.8814
" />
<path d="M171.9373 98.0110 A2.7288 2.7288 0.0 1 0 166.4797 98.0100" />
<path d="M166.4797 99.8814
L139.4972 99.8914
" />
<path d="M169.4272 140.4214
L139.4972 140.4214
" />
<path d="M171.9272 102.3914
L171.9272 137.9214
" />
<path d="M169.4272 140.4214 A2.5000 2.5000 0.0 0 0 171.9272 137.9214" />
<path d="M171.9372 98.0110
L171.9272 102.3914
" />
</g>
<g style="fill:none; 
stroke:#000000; stroke-width:0.0500; stroke-opacity:1; 
stroke-linecap:round; stroke-linejoin:round;">
<circle cx="169.2085" cy="137.8414" r="1.2985" /> 
<circle cx="139.6772" cy="137.8414" r="1.2985" /> 
<circle cx="169.2085" cy="98.0100" r="1.2985" /> 
</g> 
</svg>
